<?xml version="1.0" encoding="UTF-8" standalone="no"?>
<svg
   xmlns:dc="http://purl.org/dc/elements/1.1/"
   xmlns:cc="http://creativecommons.org/ns#"
   xmlns:rdf="http://www.w3.org/1999/02/22-rdf-syntax-ns#"
   xmlns:svg="http://www.w3.org/2000/svg"
   xmlns="http://www.w3.org/2000/svg"
   xmlns:xlink="http://www.w3.org/1999/xlink"
   xmlns:sodipodi="http://sodipodi.sourceforge.net/DTD/sodipodi-0.dtd"
   xmlns:inkscape="http://www.inkscape.org/namespaces/inkscape"
   width="48"
   height="48"
   viewBox="0 0 48 48"
   id="svg2"
   version="1.1"
   inkscape:version="1.0.1 (3bc2e813f5, 2020-09-07)"
   sodipodi:docname="com.github.lainsce.rakugaki.svg"
   inkscape:export-filename="/home/lains/Documents/Projects/rakugaki/data/icon.png"
   inkscape:export-xdpi="96"
   inkscape:export-ydpi="96">
  <sodipodi:namedview
     pagecolor="#ffffff"
     bordercolor="#666666"
     borderopacity="1"
     objecttolerance="10"
     gridtolerance="10"
     guidetolerance="10"
     inkscape:pageopacity="0"
     inkscape:pageshadow="2"
     inkscape:window-width="2560"
     inkscape:window-height="958"
     id="namedview40"
     showgrid="true"
     inkscape:zoom="41.719301"
     inkscape:cx="22.283249"
     inkscape:cy="10.691555"
     inkscape:window-x="0"
     inkscape:window-y="30"
     inkscape:window-maximized="1"
     inkscape:current-layer="svg2"
     inkscape:document-rotation="0"
     inkscape:snap-global="false">
    <inkscape:grid
       type="xygrid"
       id="grid845" />
  </sodipodi:namedview>
  <defs
     id="defs4">
    <linearGradient
       inkscape:collect="always"
       id="linearGradient1107">
      <stop
         style="stop-color:#edd09b;stop-opacity:1"
         offset="0"
         id="stop1103" />
      <stop
         style="stop-color:#cc9c50;stop-opacity:1"
         offset="0.55798048"
         id="stop1111" />
      <stop
         style="stop-color:#b37f19;stop-opacity:1"
         offset="1"
         id="stop1105" />
    </linearGradient>
    <linearGradient
       id="linearGradient23419">
      <stop
         id="stop23421"
         style="stop-color:#000000;stop-opacity:1"
         offset="0" />
      <stop
         id="stop23423"
         style="stop-color:#000000;stop-opacity:0"
         offset="1" />
    </linearGradient>
    <linearGradient
       xlink:href="#linearGradient4806-2-9"
       id="linearGradient6927"
       gradientUnits="userSpaceOnUse"
       gradientTransform="matrix(1.7553612,0,0,1.7553612,-94.69513,-16.91647)"
       x1="71.204407"
       y1="15.369057"
       x2="71.204407"
       y2="40.495617" />
    <linearGradient
       id="linearGradient4806-2-9">
      <stop
         id="stop4808-4-6"
         style="stop-color:#ffffff;stop-opacity:1"
         offset="0" />
      <stop
         id="stop4810-0-9"
         style="stop-color:#ffffff;stop-opacity:0.23529412"
         offset="0.42447853" />
      <stop
         id="stop4812-8-7"
         style="stop-color:#ffffff;stop-opacity:0.15686275"
         offset="0.82089913" />
      <stop
         id="stop4814-0-7"
         style="stop-color:#ffffff;stop-opacity:0.39215687"
         offset="1" />
    </linearGradient>
    <linearGradient
       xlink:href="#linearGradient4806-2-9"
       id="linearGradient6923"
       gradientUnits="userSpaceOnUse"
       gradientTransform="matrix(1.9186506,0,0,-1.9186506,-106.48073,85.46685)"
       x1="71.204407"
       y1="15.369057"
       x2="71.204407"
       y2="40.495617" />
    <linearGradient
       xlink:href="#linearGradient4251"
       id="linearGradient6919"
       gradientUnits="userSpaceOnUse"
       gradientTransform="matrix(0.5625,0,0,0.5625,-221,-118.62498)"
       x1="304"
       y1="98"
       x2="368"
       y2="210" />
    <linearGradient
       id="linearGradient4251">
      <stop
         id="stop4259"
         offset="0"
         style="stop-color:#cccccc;stop-opacity:1" />
      <stop
         style="stop-color:#f4f4f4;stop-opacity:1"
         offset="0.51999998"
         id="stop6460" />
      <stop
         style="stop-color:#c1c1c1;stop-opacity:1"
         offset="1"
         id="stop4183" />
    </linearGradient>
    <linearGradient
       x1="71.204407"
       y1="15.369057"
       x2="71.204407"
       y2="40.495617"
       id="linearGradient3293"
       xlink:href="#linearGradient4806-2-9"
       gradientUnits="userSpaceOnUse"
       gradientTransform="matrix(2.3268746,0,0,2.3268746,-135.94475,-32.84278)" />
    <linearGradient
       xlink:href="#linearGradient4140"
       id="linearGradient6915"
       x1="196"
       y1="152"
       x2="252"
       y2="208"
       gradientUnits="userSpaceOnUse"
       gradientTransform="translate(-191.5,-148)" />
    <linearGradient
       id="linearGradient4140">
      <stop
         id="stop4142"
         offset="0"
         style="stop-color:#f9c440;stop-opacity:1" />
      <stop
         style="stop-color:#fff394;stop-opacity:1"
         offset="0.50190115"
         id="stop5784" />
      <stop
         id="stop4144"
         offset="1"
         style="stop-color:#f9c440;stop-opacity:1" />
    </linearGradient>
    <radialGradient
       xlink:href="#linearGradient23419"
       id="radialGradient3300-9"
       gradientUnits="userSpaceOnUse"
       gradientTransform="matrix(0.3823536,7.5555777e-8,-1.8372241e-8,0.1115198,-5.9254271,36.335849)"
       cx="99.189415"
       cy="185.29727"
       fx="99.189415"
       fy="185.29727"
       r="62.769119" />
    <radialGradient
       xlink:href="#linearGradient23419"
       id="radialGradient4192"
       gradientUnits="userSpaceOnUse"
       gradientTransform="matrix(0.2549024,5.3967361e-8,-1.2248161e-8,0.07965545,6.7163816,44.240666)"
       cx="99.189415"
       cy="185.29727"
       fx="99.189415"
       fy="185.29727"
       r="62.769119" />
    <linearGradient
       id="linearGradient4658">
      <stop
         offset="0"
         style="stop-color:#fafafa;stop-opacity:1;"
         id="stop4660" />
      <stop
         offset="1"
         style="stop-color:#e2e1de;stop-opacity:1;"
         id="stop4662" />
    </linearGradient>
    <radialGradient
       gradientTransform="matrix(2.003784,0,0,1.4,27.98813,-17.4)"
       gradientUnits="userSpaceOnUse"
       xlink:href="#linearGradient3688-166-749-4-0-3-8-1"
       id="radialGradient3337-2-2-8"
       fy="43.5"
       fx="4.9929786"
       r="2.5"
       cy="43.5"
       cx="4.9929786" />
    <linearGradient
       id="linearGradient3688-166-749-4-0-3-8-1">
      <stop
         offset="0"
         style="stop-color:#181818;stop-opacity:1"
         id="stop2883-4-0-1-8-1" />
      <stop
         offset="1"
         style="stop-color:#181818;stop-opacity:0"
         id="stop2885-9-2-9-6-6" />
    </linearGradient>
    <radialGradient
       gradientTransform="matrix(2.003784,0,0,1.4,-20.01187,-104.4)"
       gradientUnits="userSpaceOnUse"
       xlink:href="#linearGradient3688-166-749-4-0-3-8-1"
       id="radialGradient3339-1-4-96"
       fy="43.5"
       fx="4.9929786"
       r="2.5"
       cy="43.5"
       cx="4.9929786" />
    <linearGradient
       id="linearGradient3702-501-757-8-4-1-1-4">
      <stop
         offset="0"
         style="stop-color:#181818;stop-opacity:0"
         id="stop2895-8-9-9-1-7" />
      <stop
         offset="0.5"
         style="stop-color:#181818;stop-opacity:1"
         id="stop2897-7-8-7-7-6" />
      <stop
         offset="1"
         style="stop-color:#181818;stop-opacity:0"
         id="stop2899-4-5-1-5-0" />
    </linearGradient>
    <linearGradient
       gradientUnits="userSpaceOnUse"
       xlink:href="#linearGradient3702-501-757-8-4-1-1-4"
       id="linearGradient5515"
       y2="39.999443"
       x2="25.058096"
       y1="47.027729"
       x1="25.058096" />
    <linearGradient
       id="linearGradient3924-2-2-5-8-0">
      <stop
         id="stop3926-9-4-9-6-6"
         style="stop-color:#ffffff;stop-opacity:1"
         offset="0" />
      <stop
         id="stop3928-9-8-6-5-1"
         style="stop-color:#ffffff;stop-opacity:0.23529412"
         offset="0.06316455" />
      <stop
         id="stop3930-3-5-1-7-98"
         style="stop-color:#ffffff;stop-opacity:0.15686275"
         offset="0.95056331" />
      <stop
         id="stop3932-8-0-4-8-60"
         style="stop-color:#ffffff;stop-opacity:0.39215687"
         offset="1" />
    </linearGradient>
    <linearGradient
       y2="43"
       x2="23.99999"
       y1="4.999989"
       x1="23.99999"
       gradientTransform="matrix(2.8648648,0,0,2.8648648,-4.7567512,-3.756748)"
       gradientUnits="userSpaceOnUse"
       id="linearGradient3681"
       xlink:href="#linearGradient3924-2-2-5-8-0" />
    <linearGradient
       y2="43"
       x2="23.99999"
       y1="4.999989"
       x1="23.99999"
       gradientTransform="matrix(2.8648648,0,0,2.8648648,-114.75675,12.243252)"
       gradientUnits="userSpaceOnUse"
       id="linearGradient3681-6"
       xlink:href="#linearGradient3924-2-2-5-8-0" />
    <linearGradient
       id="linearGradient3242-7-3-8-0-4-58-06">
      <stop
         offset="0"
         style="stop-color:#8cd5ff;stop-opacity:1"
         id="stop3244-5-8-5-6-4-3-8" />
      <stop
         offset="0.26238"
         style="stop-color:#64baff;stop-opacity:1"
         id="stop3246-9-5-1-5-3-0-7" />
      <stop
         offset="0.66093999"
         style="stop-color:#3689e6;stop-opacity:1"
         id="stop3248-7-2-0-7-5-35-9" />
      <stop
         offset="1"
         style="stop-color:#0d52bf;stop-opacity:1"
         id="stop3250-8-2-8-5-6-40-4" />
    </linearGradient>
    <linearGradient
       y2="48.395687"
       x2="25.132275"
       y1="15.499894"
       x1="25.132275"
       gradientTransform="matrix(2.5807734,0,0,2.4746518,2.0614434,-1.133976)"
       gradientUnits="userSpaceOnUse"
       id="linearGradient4556-9"
       xlink:href="#linearGradient4658" />
    <linearGradient
       gradientUnits="userSpaceOnUse"
       y2="48.933952"
       x2="24.169817"
       y1="-12.24244"
       x1="24.169817"
       id="linearGradient4654"
       xlink:href="#linearGradient3242-7-3-8-0-4-58-06"
       gradientTransform="matrix(2,0,0,2,0,1)" />
    <linearGradient
       y2="19.963179"
       x2="23.954144"
       y1="15.999304"
       x1="23.954144"
       gradientTransform="matrix(2.8,0,0,1,-3.1999972,21.000002)"
       gradientUnits="userSpaceOnUse"
       id="linearGradient4656"
       xlink:href="#linearGradient23419" />
    <linearGradient
       x1="302.85715"
       y1="366.64789"
       x2="302.85715"
       y2="609.50507"
       id="linearGradient3128"
       xlink:href="#linearGradient5048"
       gradientUnits="userSpaceOnUse"
       gradientTransform="matrix(0.09153846,0,0,0.02058823,-1.084616,49.45142)" />
    <linearGradient
       id="linearGradient5048">
      <stop
         id="stop5050"
         style="stop-color:#000000;stop-opacity:0"
         offset="0" />
      <stop
         id="stop5056"
         style="stop-color:#000000;stop-opacity:1"
         offset="0.5" />
      <stop
         id="stop5052"
         style="stop-color:#000000;stop-opacity:0"
         offset="1" />
    </linearGradient>
    <radialGradient
       cx="605.71429"
       cy="486.64789"
       r="117.14286"
       fx="605.71429"
       fy="486.64789"
       id="radialGradient3060"
       xlink:href="#linearGradient23419"
       gradientUnits="userSpaceOnUse"
       gradientTransform="matrix(-0.03132632,0,0,0.02058823,28.779136,49.45142)" />
    <radialGradient
       cx="605.71429"
       cy="486.64789"
       r="117.14286"
       fx="605.71429"
       fy="486.64789"
       id="radialGradient3057"
       xlink:href="#linearGradient23419"
       gradientUnits="userSpaceOnUse"
       gradientTransform="matrix(0.03132633,0,0,0.02058823,35.220859,49.45142)" />
    <linearGradient
       id="linearGradient3600-9">
      <stop
         id="stop3602-3"
         style="stop-color:#f4f4f4;stop-opacity:1"
         offset="0" />
      <stop
         id="stop3604-7"
         style="stop-color:#dbdbdb;stop-opacity:1"
         offset="1" />
    </linearGradient>
    <linearGradient
       x1="25.132275"
       y1="0.98520643"
       x2="25.132275"
       y2="47.013336"
       id="linearGradient3054"
       xlink:href="#linearGradient3600-9"
       gradientUnits="userSpaceOnUse"
       gradientTransform="matrix(1.3142827,0,0,1.2602393,0.4572141,-2.1793201)" />
    <linearGradient
       id="linearGradient3977-4">
      <stop
         id="stop3979-7"
         style="stop-color:#ffffff;stop-opacity:1"
         offset="0" />
      <stop
         id="stop3981-6"
         style="stop-color:#ffffff;stop-opacity:0.23529412"
         offset="0.01214366" />
      <stop
         id="stop3983-5"
         style="stop-color:#ffffff;stop-opacity:0.15686275"
         offset="0.98781353" />
      <stop
         id="stop3985-6"
         style="stop-color:#ffffff;stop-opacity:0.39215687"
         offset="1" />
    </linearGradient>
    <linearGradient
       x1="23.99999"
       y1="5.8641062"
       x2="23.99999"
       y2="42.100208"
       id="linearGradient3051"
       xlink:href="#linearGradient3977-4"
       gradientUnits="userSpaceOnUse"
       gradientTransform="matrix(1.2162162,0,0,1.5405376,2.8108184,-6.9729501)" />
    <linearGradient
       id="linearGradient3104-6">
      <stop
         id="stop3106-3"
         style="stop-color:#000000;stop-opacity:0.31782946"
         offset="0" />
      <stop
         id="stop3108-9"
         style="stop-color:#000000;stop-opacity:0.24031007"
         offset="1" />
    </linearGradient>
    <linearGradient
       x1="-51.786404"
       y1="50.786446"
       x2="-51.786404"
       y2="2.9062471"
       id="linearGradient3048"
       xlink:href="#linearGradient3104-6"
       gradientUnits="userSpaceOnUse"
       gradientTransform="matrix(1.0843523,0,0,1.1997367,79.550862,-4.1628601)" />
    <radialGradient
       gradientTransform="matrix(2.003784,0,0,1.4,27.98813,-17.4)"
       gradientUnits="userSpaceOnUse"
       xlink:href="#linearGradient3688-166-749-4-0-3-8-1"
       id="radialGradient4093"
       fy="43.5"
       fx="4.9929786"
       r="2.5"
       cy="43.5"
       cx="4.9929786" />
    <radialGradient
       gradientTransform="matrix(2.003784,0,0,1.4,-20.01187,-104.4)"
       gradientUnits="userSpaceOnUse"
       xlink:href="#linearGradient3688-166-749-4-0-3-8-1"
       id="radialGradient4095"
       fy="43.5"
       fx="4.9929786"
       r="2.5"
       cy="43.5"
       cx="4.9929786" />
    <linearGradient
       gradientUnits="userSpaceOnUse"
       xlink:href="#linearGradient3702-501-757-8-4-1-1-4"
       id="linearGradient4097"
       y2="39.999443"
       x2="25.058096"
       y1="47.027729"
       x1="25.058096" />
    <linearGradient
       id="linearGradient3242-7-3-8-0-4-58-06-3">
      <stop
         offset="0"
         style="stop-color:#cdf87e;stop-opacity:1"
         id="stop3244-5-8-5-6-4-3-8-6" />
      <stop
         offset="0.26238"
         style="stop-color:#a2e34f;stop-opacity:1"
         id="stop3246-9-5-1-5-3-0-7-7" />
      <stop
         offset="0.66093999"
         style="stop-color:#68b723;stop-opacity:1"
         id="stop3248-7-2-0-7-5-35-9-5" />
      <stop
         offset="1"
         style="stop-color:#1d7e0d;stop-opacity:1"
         id="stop3250-8-2-8-5-6-40-4-3" />
    </linearGradient>
    <linearGradient
       gradientTransform="matrix(2.7297298,0,0,2.7297298,-2.5135187,0.4877882)"
       gradientUnits="userSpaceOnUse"
       xlink:href="#linearGradient3924-2-2-5-8-0"
       id="linearGradient3202"
       y2="43"
       x2="23.99999"
       y1="4.999989"
       x1="23.99999" />
    <radialGradient
       gradientTransform="matrix(1.5563924,0,0,0.16978827,69.270354,101.13157)"
       gradientUnits="userSpaceOnUse"
       xlink:href="#linearGradient23419"
       id="radialGradient3213"
       fy="93.467628"
       fx="-4.0287771"
       r="35.338131"
       cy="93.467628"
       cx="-4.0287771" />
    <linearGradient
       gradientTransform="matrix(1.8727272,0,0,1.9230769,3.0727266,5.8456231)"
       gradientUnits="userSpaceOnUse"
       xlink:href="#linearGradient3242-7-3-8-0-4-58-06"
       id="linearGradient3278"
       y2="48.933952"
       x2="24.169817"
       y1="-12.24244"
       x1="24.169817" />
    <linearGradient
       gradientTransform="matrix(2.6000001,0,0,0.75,0.600002,27.999471)"
       gradientUnits="userSpaceOnUse"
       xlink:href="#linearGradient23419"
       id="linearGradient3285"
       y2="19.963179"
       x2="23.954144"
       y1="15.999304"
       x1="23.954144" />
    <linearGradient
       gradientTransform="matrix(2.3698469,0,0,2.2723986,6.1236811,5.2706189)"
       gradientUnits="userSpaceOnUse"
       xlink:href="#linearGradient4658"
       id="linearGradient3288-4"
       y2="48.395687"
       x2="25.132275"
       y1="15.499894"
       x1="25.132275" />
    <linearGradient
       gradientTransform="matrix(2.7297298,0,0,2.7297298,5.7431759,1.6898958)"
       gradientUnits="userSpaceOnUse"
       xlink:href="#linearGradient3924-2-2-5-8-0"
       id="linearGradient4108"
       y2="43"
       x2="23.99999"
       y1="4.999989"
       x1="23.99999" />
    <linearGradient
       gradientTransform="matrix(2.7297298,0,0,2.7297298,-2.5135182,0.4877902)"
       gradientUnits="userSpaceOnUse"
       xlink:href="#linearGradient3924-2-2-5-8-0"
       id="linearGradient4148"
       y2="43"
       x2="23.99999"
       y1="4.999989"
       x1="23.99999" />
    <radialGradient
       r="62.769119"
       fy="185.29727"
       fx="99.189415"
       cy="185.29727"
       cx="99.189415"
       gradientTransform="matrix(0.3823536,7.5555777e-8,-1.8372241e-8,0.1115198,-5.9254271,36.335849)"
       gradientUnits="userSpaceOnUse"
       id="radialGradient3300-9-0"
       xlink:href="#linearGradient23419" />
    <radialGradient
       r="62.769119"
       fy="185.29727"
       fx="99.189415"
       cy="185.29727"
       cx="99.189415"
       gradientTransform="matrix(0.2549024,5.3967361e-8,-1.2248161e-8,0.07965545,6.7163816,44.240666)"
       gradientUnits="userSpaceOnUse"
       id="radialGradient4192-6"
       xlink:href="#linearGradient23419" />
    <radialGradient
       cx="4.9929786"
       cy="43.5"
       r="2.5"
       fx="4.9929786"
       fy="43.5"
       id="radialGradient3337-2-2-8-1"
       xlink:href="#linearGradient3688-166-749-4-0-3-8-1"
       gradientUnits="userSpaceOnUse"
       gradientTransform="matrix(2.003784,0,0,1.4,27.98813,-17.4)" />
    <radialGradient
       cx="4.9929786"
       cy="43.5"
       r="2.5"
       fx="4.9929786"
       fy="43.5"
       id="radialGradient3339-1-4-96-9"
       xlink:href="#linearGradient3688-166-749-4-0-3-8-1"
       gradientUnits="userSpaceOnUse"
       gradientTransform="matrix(2.003784,0,0,1.4,-20.01187,-104.4)" />
    <linearGradient
       xlink:href="#linearGradient3924-2-2-5-8-0"
       id="linearGradient3681-2"
       gradientUnits="userSpaceOnUse"
       gradientTransform="matrix(1.4324324,0,0,1.4324324,-2.3783756,-1.8783739)"
       x1="23.99999"
       y1="4.999989"
       x2="23.99999"
       y2="43" />
    <linearGradient
       xlink:href="#linearGradient3924-2-2-5-8-0"
       id="linearGradient3681-6-2"
       gradientUnits="userSpaceOnUse"
       gradientTransform="matrix(1.4324324,0,0,1.4324324,-2.3783756,-1.8783738)"
       x1="23.99999"
       y1="4.999989"
       x2="23.99999"
       y2="43" />
    <linearGradient
       xlink:href="#linearGradient4658"
       id="linearGradient4556-9-1"
       gradientUnits="userSpaceOnUse"
       gradientTransform="matrix(1.2903867,0,0,1.2373259,1.0307217,-0.56698844)"
       x1="25.132275"
       y1="15.499894"
       x2="25.132275"
       y2="48.395687" />
    <linearGradient
       gradientTransform="translate(0,0.49999976)"
       xlink:href="#linearGradient3242-7-3-8-0-4-58-06"
       id="linearGradient4654-2"
       x1="24.169817"
       y1="-12.24244"
       x2="24.169817"
       y2="48.933952"
       gradientUnits="userSpaceOnUse" />
    <linearGradient
       xlink:href="#linearGradient23419"
       id="linearGradient4656-9"
       gradientUnits="userSpaceOnUse"
       gradientTransform="matrix(1.4,0,0,0.5,-1.5999986,10.500001)"
       x1="23.954144"
       y1="15.999304"
       x2="23.954144"
       y2="19.963179" />
    <radialGradient
       gradientTransform="matrix(-0.03132632,0,0,0.02058823,28.779136,49.45142)"
       gradientUnits="userSpaceOnUse"
       xlink:href="#linearGradient23419"
       id="radialGradient3060-4"
       fy="486.64789"
       fx="605.71429"
       r="117.14286"
       cy="486.64789"
       cx="605.71429" />
    <radialGradient
       gradientTransform="matrix(0.03132633,0,0,0.02058823,35.220859,49.45142)"
       gradientUnits="userSpaceOnUse"
       xlink:href="#linearGradient23419"
       id="radialGradient3057-7"
       fy="486.64789"
       fx="605.71429"
       r="117.14286"
       cy="486.64789"
       cx="605.71429" />
    <linearGradient
       xlink:href="#linearGradient4806-2-9"
       id="linearGradient8460"
       gradientUnits="userSpaceOnUse"
       gradientTransform="matrix(1.1838482,0,0,1.1838482,-61.44558,-8.99018)"
       x1="71.204407"
       y1="15.369057"
       x2="71.204407"
       y2="40.495617" />
    <linearGradient
       xlink:href="#linearGradient4806-2-9"
       id="linearGradient8456"
       gradientUnits="userSpaceOnUse"
       gradientTransform="matrix(1.3471377,0,0,-1.3471377,-73.23118,61.54055)"
       x1="71.204407"
       y1="15.369057"
       x2="71.204407"
       y2="40.495617" />
    <linearGradient
       xlink:href="#linearGradient4251"
       id="linearGradient8452"
       gradientUnits="userSpaceOnUse"
       gradientTransform="matrix(0.38749999,0,0,0.38749999,-154.19999,-83.67496)"
       x1="304"
       y1="98"
       x2="368"
       y2="210" />
    <linearGradient
       xlink:href="#linearGradient4806-2-9"
       id="linearGradient8448"
       gradientUnits="userSpaceOnUse"
       gradientTransform="matrix(1.5920718,0,0,1.5920718,-90.90958,-20.3661)"
       x1="71.204407"
       y1="15.369057"
       x2="71.204407"
       y2="40.495617" />
    <linearGradient
       xlink:href="#linearGradient4140"
       id="linearGradient8444"
       gradientUnits="userSpaceOnUse"
       gradientTransform="matrix(0.69491525,0,0,0.69491525,-131.31359,-101.08475)"
       x1="196"
       y1="152"
       x2="252"
       y2="208" />
    <radialGradient
       gradientTransform="matrix(0.25490241,0,0,0.08762273,-1.27539,25.1859)"
       gradientUnits="userSpaceOnUse"
       xlink:href="#linearGradient23419"
       id="radialGradient3018"
       fy="186.17059"
       fx="99.157013"
       r="62.769119"
       cy="186.17059"
       cx="99.157013" />
    <radialGradient
       gradientTransform="matrix(2.003784,0,0,1.4,27.98813,-17.4)"
       gradientUnits="userSpaceOnUse"
       xlink:href="#linearGradient3688-166-749-4-0-3-8-1"
       id="radialGradient3013"
       fy="43.5"
       fx="4.9929786"
       r="2.5"
       cy="43.5"
       cx="4.9929786" />
    <radialGradient
       gradientTransform="matrix(2.003784,0,0,1.4,-20.01187,-104.4)"
       gradientUnits="userSpaceOnUse"
       xlink:href="#linearGradient3688-166-749-4-0-3-8-1"
       id="radialGradient3015"
       fy="43.5"
       fx="4.9929786"
       r="2.5"
       cy="43.5"
       cx="4.9929786" />
    <linearGradient
       gradientTransform="translate(4e-6,0.75000619)"
       gradientUnits="userSpaceOnUse"
       xlink:href="#linearGradient3924-2-2-5-8-0"
       id="linearGradient3991"
       y2="43"
       x2="23.99999"
       y1="4.999989"
       x1="23.99999" />
    <linearGradient
       gradientTransform="matrix(0.70909089,0,0,0.70909089,1.309104,2.0590923)"
       gradientUnits="userSpaceOnUse"
       xlink:href="#linearGradient3242-7-3-8-0-4-58-06"
       id="linearGradient4036"
       y2="48.933952"
       x2="24.169817"
       y1="-12.24244"
       x1="24.169817" />
    <linearGradient
       gradientTransform="matrix(0.99999997,0,0,0.37500001,1.801756e-6,8.7500009)"
       gradientUnits="userSpaceOnUse"
       xlink:href="#linearGradient23419"
       id="linearGradient4043"
       y2="19.963179"
       x2="23.954144"
       y1="15.999304"
       x1="23.954144" />
    <linearGradient
       gradientTransform="matrix(0.89153988,0,0,0.8548797,2.6030444,1.4165388)"
       gradientUnits="userSpaceOnUse"
       xlink:href="#linearGradient4658"
       id="linearGradient4046-7"
       y2="48.395687"
       x2="25.132275"
       y1="15.499894"
       x1="25.132275" />
    <linearGradient
       gradientTransform="translate(4e-6,0.75000599)"
       gradientUnits="userSpaceOnUse"
       xlink:href="#linearGradient3924-2-2-5-8-0"
       id="linearGradient4100"
       y2="43"
       x2="23.99999"
       y1="4.999989"
       x1="23.99999" />
    <linearGradient
       y2="40.495617"
       x2="71.204407"
       y1="15.369057"
       x1="71.204407"
       gradientTransform="matrix(0.5306906,0,0,0.53069056,-26.30317,-2.78869)"
       gradientUnits="userSpaceOnUse"
       id="linearGradient7487"
       xlink:href="#linearGradient4806-2-9" />
    <linearGradient
       y2="210"
       x2="368"
       y1="98"
       x1="304"
       gradientTransform="matrix(0.18750001,0,0,0.18750001,-74.99999,-40.875)"
       gradientUnits="userSpaceOnUse"
       id="linearGradient7483"
       xlink:href="#linearGradient4251" />
    <linearGradient
       y2="40.495617"
       x2="71.204407"
       y1="15.369057"
       x1="71.204407"
       gradientTransform="matrix(0.77562477,0,0,0.77562473,-43.98156,-9.61425)"
       gradientUnits="userSpaceOnUse"
       id="linearGradient7475"
       xlink:href="#linearGradient4806-2-9" />
    <linearGradient
       y2="202"
       x2="384"
       y1="106"
       x1="288"
       gradientTransform="matrix(0.2,0,0,0.2,-55.19999,-18.80001)"
       gradientUnits="userSpaceOnUse"
       id="linearGradient6964"
       xlink:href="#linearGradient4140" />
    <radialGradient
       xlink:href="#linearGradient23419"
       id="radialGradient3090-9-3"
       gradientUnits="userSpaceOnUse"
       gradientTransform="matrix(1.1294118,0,0,0.2823525,-58.7294,19.69412)"
       cx="62.625"
       cy="4.625"
       fx="62.625"
       fy="4.625"
       r="10.625" />
    <radialGradient
       cx="4.9929786"
       cy="43.5"
       r="2.5"
       fx="4.9929786"
       fy="43.5"
       id="radialGradient3082-6"
       xlink:href="#linearGradient3688-166-749-4-0-3-8-1"
       gradientUnits="userSpaceOnUse"
       gradientTransform="matrix(2.003784,0,0,1.4,27.98813,-17.4)" />
    <radialGradient
       cx="4.9929786"
       cy="43.5"
       r="2.5"
       fx="4.9929786"
       fy="43.5"
       id="radialGradient3084-4"
       xlink:href="#linearGradient3688-166-749-4-0-3-8-1"
       gradientUnits="userSpaceOnUse"
       gradientTransform="matrix(2.003784,0,0,1.4,-20.01187,-104.4)" />
    <linearGradient
       x1="23.99999"
       y1="4.999989"
       x2="23.99999"
       y2="43"
       id="linearGradient3192"
       xlink:href="#linearGradient3924-2-2-5-8-0"
       gradientUnits="userSpaceOnUse"
       gradientTransform="matrix(0.45945947,0,0,0.45945947,0.9742189,0.9717503)" />
    <linearGradient
       x1="24.169817"
       y1="-12.24244"
       x2="24.169817"
       y2="48.933952"
       id="linearGradient3261"
       xlink:href="#linearGradient3242-7-3-8-0-4-58-06"
       gradientUnits="userSpaceOnUse"
       gradientTransform="matrix(0.34545454,0,0,0.34545454,0.945454,0.945482)" />
    <linearGradient
       x1="23.954144"
       y1="15.999304"
       x2="23.954144"
       y2="19.963179"
       id="linearGradient3265"
       xlink:href="#linearGradient23419"
       gradientUnits="userSpaceOnUse"
       gradientTransform="matrix(0.49999998,0,0,0.25,1.0885132e-6,4.0000009)" />
    <linearGradient
       x1="25.132275"
       y1="15.499894"
       x2="25.132275"
       y2="48.395687"
       id="linearGradient3268-1"
       xlink:href="#linearGradient4658"
       gradientUnits="userSpaceOnUse"
       gradientTransform="matrix(0.42230832,0,0,0.40494298,1.8646017,1.1780783)" />
    <linearGradient
       x1="23.99999"
       y1="4.999989"
       x2="23.99999"
       y2="43"
       id="linearGradient4125"
       xlink:href="#linearGradient3924-2-2-5-8-0"
       gradientUnits="userSpaceOnUse"
       gradientTransform="matrix(0.45945947,0,0,0.45945947,0.9742189,0.9717507)" />
    <linearGradient
       gradientTransform="matrix(1.0181566,0,0,-1.0195328,-0.21530444,32.481143)"
       gradientUnits="userSpaceOnUse"
       xlink:href="#linearGradient23419"
       id="linearGradient3223"
       y2="20.187275"
       x2="12.913282"
       y1="17.533852"
       x1="12.913282" />
    <linearGradient
       gradientTransform="matrix(2.3390655,0,0,2.3420385,9.8687579,11.713606)"
       gradientUnits="userSpaceOnUse"
       xlink:href="#linearGradient4095"
       id="linearGradient3233"
       y2="41.229313"
       x2="23.99999"
       y1="6.5493407"
       x1="23.99999" />
    <linearGradient
       id="linearGradient4095">
      <stop
         offset="0"
         style="stop-color:#ffffff;stop-opacity:1"
         id="stop4097" />
      <stop
         offset="0.01652508"
         style="stop-color:#ffffff;stop-opacity:0.23529412"
         id="stop4100" />
      <stop
         offset="0.98001981"
         style="stop-color:#ffffff;stop-opacity:0.15686275"
         id="stop4102" />
      <stop
         offset="1"
         style="stop-color:#ffffff;stop-opacity:0.39215687"
         id="stop4104" />
    </linearGradient>
    <radialGradient
       gradientTransform="matrix(0,4.6270127,-5.6804933,0,68.966159,-38.745063)"
       gradientUnits="userSpaceOnUse"
       xlink:href="#linearGradient2867-449-88-871-390-598-476-591-434-148-57-177-8-3-3-6-4-8-8-8-5"
       id="radialGradient3215"
       fy="9.9571075"
       fx="6.2001843"
       r="12.671875"
       cy="9.9571075"
       cx="6.7304144" />
    <linearGradient
       id="linearGradient2867-449-88-871-390-598-476-591-434-148-57-177-8-3-3-6-4-8-8-8-5">
      <stop
         offset="0"
         style="stop-color:#919caf;stop-opacity:1"
         id="stop3750-1-0-7-6-6-1-3-9-3" />
      <stop
         offset="0.26238"
         style="stop-color:#68758e;stop-opacity:1"
         id="stop3752-3-7-4-0-32-8-923-0-7" />
      <stop
         offset="0.704952"
         style="stop-color:#485a6c;stop-opacity:1"
         id="stop3754-1-8-5-2-7-6-7-1-9" />
      <stop
         offset="1"
         style="stop-color:#444c5c;stop-opacity:1"
         id="stop3756-1-6-2-6-6-1-96-6-0" />
    </linearGradient>
    <radialGradient
       gradientTransform="matrix(2.003784,0,0,1.4,27.98813,-17.4)"
       gradientUnits="userSpaceOnUse"
       xlink:href="#linearGradient3688-166-749-4-0-3-8-1"
       id="radialGradient3082-6-3"
       fy="43.5"
       fx="4.9929786"
       r="2.5"
       cy="43.5"
       cx="4.9929786" />
    <radialGradient
       gradientTransform="matrix(2.003784,0,0,1.4,-20.01187,-104.4)"
       gradientUnits="userSpaceOnUse"
       xlink:href="#linearGradient3688-166-749-4-0-3-8-1"
       id="radialGradient3084-4-5"
       fy="43.5"
       fx="4.9929786"
       r="2.5"
       cy="43.5"
       cx="4.9929786" />
    <linearGradient
       x1="76.523361"
       y1="-9.023138"
       x2="76.523361"
       y2="3.4508991"
       id="linearGradient3149"
       xlink:href="#linearGradient23419"
       gradientUnits="userSpaceOnUse"
       gradientTransform="matrix(0.89553576,0,0,-0.89663265,7.68362,69.70686)" />
    <linearGradient
       x1="23.99999"
       y1="4.999989"
       x2="23.99999"
       y2="43"
       id="linearGradient3159"
       xlink:href="#linearGradient3924-2-2-5-8-0"
       gradientUnits="userSpaceOnUse"
       gradientTransform="matrix(2.7297298,0,0,2.7297298,-0.5135132,1.4875374)" />
    <radialGradient
       cx="6.7304144"
       cy="9.9571075"
       r="12.671875"
       fx="6.2001843"
       fy="9.9571075"
       id="radialGradient3395"
       xlink:href="#linearGradient3600-9"
       gradientUnits="userSpaceOnUse"
       gradientTransform="matrix(0,9.3757888,-11.65996,0,140.93055,-77.575574)" />
    <radialGradient
       cx="4.9929786"
       cy="43.5"
       r="2.5"
       fx="4.9929786"
       fy="43.5"
       id="radialGradient2455-1"
       xlink:href="#linearGradient3688-166-749-4-0-3-8-1"
       gradientUnits="userSpaceOnUse"
       gradientTransform="matrix(2.003784,0,0,1.4,27.98813,-17.4)" />
    <radialGradient
       cx="4.9929786"
       cy="43.5"
       r="2.5"
       fx="4.9929786"
       fy="43.5"
       id="radialGradient2457-5"
       xlink:href="#linearGradient3688-166-749-4-0-3-8-1"
       gradientUnits="userSpaceOnUse"
       gradientTransform="matrix(2.003784,0,0,1.4,-20.01187,-104.4)" />
    <radialGradient
       cx="-4.0287771"
       cy="93.467628"
       r="35.338131"
       fx="-4.0287771"
       fy="93.467628"
       id="radialGradient4377"
       xlink:href="#linearGradient23419"
       gradientUnits="userSpaceOnUse"
       gradientTransform="matrix(0.58364715,0,0,0.06367061,26.726384,38.299241)" />
    <radialGradient
       cx="6.7304144"
       cy="9.9571075"
       r="12.671875"
       fx="6.2001843"
       fy="9.9571075"
       id="radialGradient3395-3"
       xlink:href="#linearGradient3600-9"
       gradientUnits="userSpaceOnUse"
       gradientTransform="matrix(0,25.083279,-30.794253,0,373.81658,-208.09078)" />
    <radialGradient
       cx="6.7304144"
       cy="9.9571075"
       r="12.671875"
       fx="6.2001843"
       fy="9.9571075"
       id="radialGradient3395-35"
       xlink:href="#linearGradient3600-9"
       gradientUnits="userSpaceOnUse"
       gradientTransform="matrix(0,25.083279,-6.0635855,0,84.44864,-208.09078)" />
    <linearGradient
       inkscape:collect="always"
       xlink:href="#linearGradient1107"
       id="linearGradient1109"
       x1="12.844522"
       y1="67.001022"
       x2="39.01009"
       y2="67.001022"
       gradientUnits="userSpaceOnUse"
       gradientTransform="matrix(0.29583819,0,0,0.37864076,1.5061845,-49.369316)" />
    <linearGradient
       inkscape:collect="always"
       xlink:href="#linearGradient4806-2-9"
       id="linearGradient1145"
       x1="12.998976"
       y1="62.001019"
       x2="32.998978"
       y2="62.001019"
       gradientUnits="userSpaceOnUse"
       gradientTransform="matrix(0.29075356,0,0,0.36570298,2.3605017,-48.472238)" />
    <radialGradient
       inkscape:collect="always"
       xlink:href="#linearGradient2867-449-88-871-390-598-476-591-434-148-57-177-8-3-3-6-4-8-8-8-5"
       id="radialGradient1824"
       cx="65.99044"
       cy="18.994976"
       fx="65.99044"
       fy="18.994976"
       r="3.5"
       gradientUnits="userSpaceOnUse"
       gradientTransform="matrix(-2.7813031e-7,0.4761905,-0.47619047,-1.904762e-7,34.190494,-23.285713)" />
  </defs>
  <metadata
     id="metadata7">
    <rdf:RDF>
      <cc:Work
         rdf:about="">
        <dc:format>image/svg+xml</dc:format>
        <dc:type
           rdf:resource="http://purl.org/dc/dcmitype/StillImage" />
        <dc:title />
      </cc:Work>
    </rdf:RDF>
  </metadata>
  <path
     inkscape:connector-curvature="0"
     d="m 45,44.250382 a 20.625,2.25 0 0 1 -41.2499996,0 20.625,2.25 0 1 1 41.2499996,0 z"
     id="path3041"
     style="color:#000000;display:inline;overflow:visible;visibility:visible;opacity:0.2;fill:url(#radialGradient4377);fill-opacity:1;fill-rule:nonzero;stroke:none;stroke-width:1;marker:none;enable-background:accumulate" />
  <g
     transform="matrix(1.0124996,0,0,0.20833353,0.07499899,35.583714)"
     id="g2036"
     style="display:inline;stroke-width:2.66665">
    <g
       transform="matrix(1.052632,0,0,1.285713,-1.263158,-13.42854)"
       id="g3712"
       style="opacity:0.4;stroke-width:2.66665">
      <rect
         width="5"
         height="7"
         x="38"
         y="40"
         id="rect2801"
         style="fill:url(#radialGradient2455-1);fill-opacity:1;stroke:none;stroke-width:2.66665" />
      <rect
         width="5"
         height="7"
         x="-10"
         y="-47"
         transform="scale(-1)"
         id="rect3696"
         style="fill:url(#radialGradient2457-5);fill-opacity:1;stroke:none;stroke-width:2.66665" />
      <rect
         width="28"
         height="7.0000005"
         x="10"
         y="40"
         id="rect3700"
         style="fill:url(#linearGradient5515);fill-opacity:1;stroke:none;stroke-width:2.66665" />
    </g>
  </g>
  <rect
     width="39"
     height="38.5"
     rx="1.107313"
     ry="1.1765155"
     x="4.5"
     y="6"
     id="rect5505-21-3"
     style="color:#000000;display:inline;overflow:visible;visibility:visible;fill:url(#radialGradient3395);fill-opacity:1;fill-rule:nonzero;stroke:none;stroke-width:0.999997;marker:none;enable-background:accumulate" />
  <path
     d="m 33.981605,16.847366 h 0.604592 v -0.705358 h 2.267223 v 0.705358 h 0.604592 v -0.705358 h 1.956532 V 15.579401 H 37.458012 V 15 H 36.85342 v 0.579401 H 34.586197 V 15 h -0.604592 v 0.579401 h -1.889349 v 0.562607 h 1.889349 z m -1.494685,0.319091 c 0.470238,0.26031 1.100022,0.638181 1.402317,0.890094 l 0.386269,-0.470238 C 33.948019,17.342797 33.318235,16.98172 32.847998,16.746601 Z m 1.234376,1.998514 C 33.402203,18.90466 32.772419,18.560378 32.27699,18.358847 l -0.352678,0.428254 c 0.495429,0.226722 1.108419,0.596195 1.419114,0.864903 z m -1.175596,3.46801 c 0.512223,-0.612989 1.116815,-1.435907 1.587053,-2.132868 l -0.377871,-0.445047 c -0.529018,0.75574 -1.209182,1.595452 -1.662626,2.099279 z m 3.266479,-4.945903 h 2.300807 c -0.293899,0.361077 -0.688561,0.696961 -1.142005,0.99086 -0.478635,-0.293899 -0.890095,-0.604592 -1.209185,-0.93208 z m 2.359589,2.980977 v 1.142009 h -2.636694 v -1.142009 z m 0.436653,-3.501598 -0.100766,0.03359 h -2.317606 c 0.125957,-0.176339 0.235118,-0.335884 0.344281,-0.503827 l -0.612991,-0.11756 c -0.361074,0.621387 -1.024447,1.402319 -1.897747,1.990118 0.14275,0.08397 0.335883,0.251914 0.445047,0.37787 0.335886,-0.251914 0.654975,-0.529018 0.923682,-0.806123 0.310694,0.293899 0.663373,0.579401 1.058037,0.848109 -0.747343,0.411459 -1.603849,0.722152 -2.384781,0.898492 0.117558,0.109162 0.251913,0.352679 0.310695,0.503827 0.184734,-0.05039 0.37787,-0.109163 0.562605,-0.167943 v 2.443562 h 0.596197 v -0.361077 h 2.636694 v 0.361077 h 0.61299 v -2.493945 h -3.686335 c 0.638182,-0.209927 1.276361,-0.503826 1.872558,-0.856506 0.747344,0.43665 1.561863,0.797727 2.334396,1.016052 0.09237,-0.159546 0.260314,-0.386268 0.394666,-0.512225 C 38.97789,19.63521 38.19696,19.34131 37.5,18.980234 c 0.612986,-0.43665 1.150402,-0.965668 1.503082,-1.561863 z"
     id="path960-3"
     inkscape:connector-curvature="0"
     style="font-style:normal;font-weight:normal;font-size:26.6667px;line-height:1.25;font-family:sans-serif;letter-spacing:0px;word-spacing:0px;fill:#ffffff;fill-opacity:0.777447;stroke:none;stroke-width:1" />
  <path
     d="m 33.981605,16.472366 h 0.604592 v -0.705358 h 2.267223 v 0.705358 h 0.604592 v -0.705358 h 1.956532 V 15.204401 H 37.458012 V 14.625 H 36.85342 v 0.579401 H 34.586197 V 14.625 h -0.604592 v 0.579401 h -1.889349 v 0.562607 h 1.889349 z m -1.494685,0.319091 c 0.470238,0.26031 1.100022,0.638181 1.402317,0.890094 l 0.386269,-0.470238 C 33.948019,16.967797 33.318235,16.60672 32.847998,16.371601 Z m 1.234376,1.998514 C 33.402203,18.52966 32.772419,18.185378 32.27699,17.983847 l -0.352678,0.428254 c 0.495429,0.226722 1.108419,0.596195 1.419114,0.864903 z m -1.175596,3.46801 c 0.512223,-0.612989 1.116815,-1.435907 1.587053,-2.132868 l -0.377871,-0.445047 c -0.529018,0.75574 -1.209182,1.595452 -1.662626,2.099279 z m 3.266479,-4.945903 h 2.300807 c -0.293895,0.361077 -0.688561,0.696961 -1.142005,0.99086 -0.478635,-0.293899 -0.890095,-0.604592 -1.209185,-0.93208 z m 2.359589,2.980977 v 1.142009 h -2.636694 v -1.142009 z m 0.436653,-3.501598 -0.100766,0.03359 h -2.317606 c 0.125957,-0.176339 0.235118,-0.335884 0.344281,-0.503827 l -0.612991,-0.11756 c -0.361074,0.621387 -1.024447,1.402319 -1.897747,1.990118 0.14275,0.08397 0.335883,0.251914 0.445047,0.37787 0.335886,-0.251914 0.654975,-0.529018 0.923682,-0.806123 0.310694,0.293899 0.663373,0.579401 1.058037,0.848109 -0.747343,0.411459 -1.603849,0.722152 -2.384781,0.898492 0.117558,0.109162 0.251913,0.352679 0.310695,0.503827 0.184734,-0.05039 0.37787,-0.109163 0.562605,-0.167943 v 2.443562 h 0.596197 v -0.361077 h 2.636694 v 0.361077 h 0.61299 v -2.493945 h -3.686335 c 0.638182,-0.209927 1.276361,-0.503826 1.872558,-0.856506 0.747344,0.43665 1.561867,0.797727 2.3344,1.016052 0.09237,-0.159546 0.26031,-0.386268 0.394662,-0.512225 C 38.977894,19.26021 38.19696,18.96631 37.5,18.605234 c 0.612986,-0.43665 1.150402,-0.965668 1.503082,-1.561863 z"
     id="path960"
     inkscape:connector-curvature="0"
     style="font-style:normal;font-weight:normal;font-size:26.6667px;line-height:1.25;font-family:sans-serif;letter-spacing:0px;word-spacing:0px;fill:#808080;fill-opacity:1;stroke:none;stroke-width:1" />
  <path
     d="m 37.752979,29.390502 v 0.512224 h -4.131381 v -0.512224 z m -4.131381,1.452701 v -0.537415 h 4.131381 v 0.537415 z m -0.604593,0.713755 h 0.604593 v -0.277105 h 4.131381 v 0.260311 h 0.621386 v -2.577915 h -5.35736 z m 2.913799,-5.752026 h 1.788586 v 0.49543 h -1.788586 z m 0,-0.940477 h 1.788586 v 0.470239 h -1.788586 z m 0,3.241288 v -0.495431 h 2.863419 v -0.428253 h -2.863419 v -0.461841 h 2.401576 v -0.915286 h 1.024448 V 25.334693 H 38.33238 V 24.444599 H 35.930804 V 23.8568 h -0.61299 v 0.587799 h -2.477148 v 0.419855 h 2.477148 v 0.470239 h -3.358846 v 0.470239 h 3.358846 v 0.49543 h -2.569519 v 0.419856 h 2.569519 v 0.461841 h -2.804637 v 0.428253 h 2.804637 v 0.49543 h -3.375642 v 0.461842 h 7.423056 v -0.461842 z"
     id="path962-6"
     inkscape:connector-curvature="0"
     style="font-style:normal;font-weight:normal;font-size:26.6667px;line-height:1.25;font-family:sans-serif;letter-spacing:0px;word-spacing:0px;fill:#ffffff;fill-opacity:0.777447;stroke:none;stroke-width:1" />
  <path
     d="m 37.752979,29.015502 v 0.512224 h -4.131381 v -0.512224 z m -4.131381,1.452701 v -0.537415 h 4.131381 v 0.537415 z m -0.604593,0.713755 h 0.604593 v -0.277105 h 4.131381 v 0.260311 h 0.621386 v -2.577915 h -5.35736 z m 2.913799,-5.752026 h 1.788586 v 0.49543 h -1.788586 z m 0,-0.940477 h 1.788586 v 0.470239 h -1.788586 z m 0,3.241288 v -0.495431 h 2.863419 v -0.428253 h -2.863419 v -0.461841 h 2.401576 v -0.915286 h 1.024448 V 24.959693 H 38.33238 V 24.069599 H 35.930804 V 23.4818 h -0.61299 v 0.587799 h -2.477148 v 0.419855 h 2.477148 v 0.470239 h -3.358846 v 0.470239 h 3.358846 v 0.49543 h -2.569519 v 0.419856 h 2.569519 v 0.461841 h -2.804637 v 0.428253 h 2.804637 v 0.49543 h -3.375642 v 0.461842 h 7.423056 v -0.461842 z"
     id="path962"
     inkscape:connector-curvature="0"
     style="font-style:normal;font-weight:normal;font-size:26.6667px;line-height:1.25;font-family:sans-serif;letter-spacing:0px;word-spacing:0px;fill:#808080;fill-opacity:1;stroke:none;stroke-width:1" />
  <path
     d="m 35.860831,33.668906 c 0.01679,0.06718 0.03359,0.142751 0.05878,0.209928 -0.806123,0.04199 -1.763395,0.01679 -2.771049,-0.100765 l 0.04199,0.61299 c 1.049639,0.09237 2.07409,0.109162 2.888608,0.05878 0.06718,0.201531 0.142753,0.419856 0.226723,0.654975 0.05038,0.142751 0.109163,0.285502 0.167944,0.43665 -0.948876,0.08397 -2.225238,0.09237 -3.484806,-0.04198 l 0.03359,0.629784 c 1.293155,0.09237 2.670284,0.07557 3.694731,-0.01679 0.184738,0.411457 0.403062,0.822917 0.654976,1.209186 -0.268707,-0.03359 -0.814522,-0.09237 -1.259568,-0.142753 l -0.05879,0.512227 c 0.579401,0.06718 1.368732,0.142747 1.838971,0.268706 l 0.344283,-0.512223 c -0.117562,-0.117562 -0.218328,-0.226723 -0.310694,-0.361078 -0.218325,-0.319089 -0.411458,-0.680166 -0.5878,-1.041243 0.5878,-0.08397 1.116816,-0.193133 1.519881,-0.302296 l -0.100766,-0.629785 c -0.394665,0.125957 -0.982463,0.277106 -1.679423,0.361076 -0.06718,-0.167942 -0.134355,-0.344281 -0.193135,-0.503826 -0.05878,-0.17634 -0.125958,-0.369474 -0.184735,-0.579402 0.5794,-0.07557 1.175596,-0.201531 1.654231,-0.335885 l -0.09237,-0.604592 c -0.537416,0.17634 -1.125217,0.302296 -1.721411,0.37787 -0.09237,-0.335884 -0.167942,-0.680166 -0.201531,-0.999257 l -0.713756,0.09237 c 0.08397,0.23512 0.167944,0.495431 0.23512,0.747344 z m -1.654232,3.635953 -0.654975,-0.134354 c -0.184737,0.369474 -0.335886,0.722154 -0.327488,1.200789 0.0084,1.074832 0.93208,1.561863 2.577914,1.561863 0.713756,0 1.377129,-0.05038 1.964924,-0.142751 l 0.0252,-0.671767 c -0.604591,0.125955 -1.217579,0.17634 -1.998511,0.17634 -1.318348,0 -1.939734,-0.344284 -1.939734,-1.041244 0,-0.369472 0.151148,-0.654979 0.352679,-0.948875 z"
     id="path964-0"
     inkscape:connector-curvature="0"
     style="font-style:normal;font-weight:normal;font-size:26.6667px;line-height:1.25;font-family:sans-serif;letter-spacing:0px;word-spacing:0px;fill:#ffffff;fill-opacity:0.777447;stroke:none;stroke-width:1" />
  <path
     d="m 35.860831,33.293906 c 0.01679,0.06718 0.03359,0.142751 0.05878,0.209928 -0.806123,0.04199 -1.763395,0.01679 -2.771049,-0.100765 l 0.04199,0.61299 c 1.049639,0.09237 2.07409,0.109162 2.888608,0.05878 0.06718,0.201531 0.142753,0.419856 0.226723,0.654975 0.05038,0.142751 0.109163,0.285502 0.167944,0.43665 -0.948876,0.08397 -2.225238,0.09237 -3.484806,-0.04198 l 0.03359,0.629784 c 1.293155,0.09237 2.670284,0.07557 3.694731,-0.01679 0.184738,0.411457 0.403062,0.822917 0.654976,1.209186 -0.268707,-0.03359 -0.814522,-0.09237 -1.259568,-0.142753 l -0.05879,0.512225 c 0.579401,0.06718 1.368732,0.142748 1.838971,0.268708 l 0.344283,-0.512223 c -0.117562,-0.117562 -0.218328,-0.226723 -0.310694,-0.361078 -0.218325,-0.319089 -0.411458,-0.680166 -0.5878,-1.041243 0.5878,-0.08397 1.116819,-0.193133 1.519881,-0.302296 l -0.100766,-0.629785 c -0.394665,0.125957 -0.982463,0.277106 -1.679423,0.361076 -0.06718,-0.167942 -0.134355,-0.344281 -0.193135,-0.503826 -0.05878,-0.17634 -0.125958,-0.369474 -0.184735,-0.579402 0.5794,-0.07557 1.175596,-0.201531 1.654231,-0.335885 l -0.09237,-0.604592 c -0.537416,0.17634 -1.125217,0.302296 -1.721411,0.37787 -0.09237,-0.335884 -0.167942,-0.680166 -0.201531,-0.999257 l -0.713756,0.09237 c 0.08397,0.23512 0.167944,0.495431 0.23512,0.747344 z m -1.654232,3.635953 -0.654975,-0.134354 c -0.184737,0.369474 -0.335886,0.722154 -0.327488,1.200789 0.0084,1.074832 0.93208,1.561863 2.577914,1.561863 0.713756,0 1.377129,-0.05038 1.964924,-0.142751 l 0.0252,-0.671767 c -0.604591,0.125955 -1.217579,0.17634 -1.998511,0.17634 -1.318348,0 -1.939734,-0.344284 -1.939734,-1.041244 0,-0.369472 0.151148,-0.654977 0.352679,-0.948875 z"
     id="path964"
     inkscape:connector-curvature="0"
     style="font-style:normal;font-weight:normal;font-size:26.6667px;line-height:1.25;font-family:sans-serif;letter-spacing:0px;word-spacing:0px;fill:#808080;fill-opacity:1;stroke:none;stroke-width:1" />
  <rect
     width="39"
     height="39"
     rx="1.0981789"
     ry="1.1871175"
     x="4.5"
     y="5.5"
     id="rect5505-21-3-5"
     style="color:#000000;display:inline;overflow:visible;visibility:visible;opacity:0.302488;fill:none;fill-opacity:1;fill-rule:nonzero;stroke:#000000;stroke-width:1;stroke-opacity:1;marker:none;enable-background:accumulate" />
  <rect
     width="6"
     height="39"
     rx="1.2090833"
     ry="1.0504603"
     x="5.5"
     y="-43.5"
     id="rect5505-21-3-9"
     style="color:#000000;display:inline;overflow:visible;visibility:visible;fill:url(#linearGradient1109);fill-opacity:1;fill-rule:nonzero;stroke:#a66700;stroke-width:1;stroke-opacity:0.379525;marker:none;enable-background:accumulate"
     transform="rotate(90)" />
  <rect
     width="3.9246171"
     height="36.959225"
     rx="0"
     ry="0"
     x="6.5764284"
     y="-42.438141"
     id="rect5505-21-3-9-9"
     style="color:#000000;display:inline;overflow:visible;visibility:visible;fill:none;fill-opacity:1;fill-rule:nonzero;stroke:url(#linearGradient1145);stroke-width:1;stroke-opacity:0.379525;marker:none;enable-background:accumulate"
     transform="rotate(90)" />
  <circle
     style="opacity:1;fill:url(#radialGradient1824);fill-opacity:1;stroke:#a66700;stroke-width:1;stroke-linecap:square;stroke-linejoin:round;stroke-opacity:0.379525"
     id="path1816"
     cx="25.5"
     cy="8.5"
     r="1" />
</svg>
