<?xml version="1.0" encoding="UTF-8" standalone="no"?>
<svg
   xmlns:dc="http://purl.org/dc/elements/1.1/"
   xmlns:cc="http://creativecommons.org/ns#"
   xmlns:rdf="http://www.w3.org/1999/02/22-rdf-syntax-ns#"
   xmlns:svg="http://www.w3.org/2000/svg"
   xmlns="http://www.w3.org/2000/svg"
   xmlns:xlink="http://www.w3.org/1999/xlink"
   xmlns:sodipodi="http://sodipodi.sourceforge.net/DTD/sodipodi-0.dtd"
   xmlns:inkscape="http://www.inkscape.org/namespaces/inkscape"
   width="24"
   height="24"
   viewBox="0 0 24 24"
   id="svg2"
   version="1.1"
   inkscape:version="1.0.1 (3bc2e813f5, 2020-09-07)"
   sodipodi:docname="com.github.lainsce.rakugaki.svg"
   inkscape:export-filename="/home/lainsce/Documenti/Projects/timetable/data/icon.png"
   inkscape:export-xdpi="96"
   inkscape:export-ydpi="96">
  <sodipodi:namedview
     pagecolor="#ffffff"
     bordercolor="#666666"
     borderopacity="1"
     objecttolerance="10"
     gridtolerance="10"
     guidetolerance="10"
     inkscape:pageopacity="0"
     inkscape:pageshadow="2"
     inkscape:window-width="2560"
     inkscape:window-height="958"
     id="namedview40"
     showgrid="true"
     inkscape:zoom="20.85965"
     inkscape:cx="8.0833682"
     inkscape:cy="16.160353"
     inkscape:window-x="0"
     inkscape:window-y="30"
     inkscape:window-maximized="1"
     inkscape:current-layer="svg2"
     inkscape:document-rotation="0"
     inkscape:snap-global="true">
    <inkscape:grid
       type="xygrid"
       id="grid845" />
  </sodipodi:namedview>
  <defs
     id="defs4">
    <linearGradient
       inkscape:collect="always"
       id="linearGradient1107">
      <stop
         style="stop-color:#edd09b;stop-opacity:1"
         offset="0"
         id="stop1103" />
      <stop
         style="stop-color:#cc9c50;stop-opacity:1"
         offset="0.55798048"
         id="stop1111" />
      <stop
         style="stop-color:#b37f19;stop-opacity:1"
         offset="1"
         id="stop1105" />
    </linearGradient>
    <linearGradient
       id="linearGradient23419">
      <stop
         id="stop23421"
         style="stop-color:#000000;stop-opacity:1"
         offset="0" />
      <stop
         id="stop23423"
         style="stop-color:#000000;stop-opacity:0"
         offset="1" />
    </linearGradient>
    <linearGradient
       xlink:href="#linearGradient4806-2-9"
       id="linearGradient6927"
       gradientUnits="userSpaceOnUse"
       gradientTransform="matrix(1.7553612,0,0,1.7553612,-94.69513,-16.91647)"
       x1="71.204407"
       y1="15.369057"
       x2="71.204407"
       y2="40.495617" />
    <linearGradient
       id="linearGradient4806-2-9">
      <stop
         id="stop4808-4-6"
         style="stop-color:#ffffff;stop-opacity:1"
         offset="0" />
      <stop
         id="stop4810-0-9"
         style="stop-color:#ffffff;stop-opacity:0.23529412"
         offset="0.42447853" />
      <stop
         id="stop4812-8-7"
         style="stop-color:#ffffff;stop-opacity:0.15686275"
         offset="0.82089913" />
      <stop
         id="stop4814-0-7"
         style="stop-color:#ffffff;stop-opacity:0.39215687"
         offset="1" />
    </linearGradient>
    <linearGradient
       xlink:href="#linearGradient4806-2-9"
       id="linearGradient6923"
       gradientUnits="userSpaceOnUse"
       gradientTransform="matrix(1.9186506,0,0,-1.9186506,-106.48073,85.46685)"
       x1="71.204407"
       y1="15.369057"
       x2="71.204407"
       y2="40.495617" />
    <linearGradient
       xlink:href="#linearGradient4251"
       id="linearGradient6919"
       gradientUnits="userSpaceOnUse"
       gradientTransform="matrix(0.5625,0,0,0.5625,-221,-118.62498)"
       x1="304"
       y1="98"
       x2="368"
       y2="210" />
    <linearGradient
       id="linearGradient4251">
      <stop
         id="stop4259"
         offset="0"
         style="stop-color:#cccccc;stop-opacity:1" />
      <stop
         style="stop-color:#f4f4f4;stop-opacity:1"
         offset="0.51999998"
         id="stop6460" />
      <stop
         style="stop-color:#c1c1c1;stop-opacity:1"
         offset="1"
         id="stop4183" />
    </linearGradient>
    <linearGradient
       x1="71.204407"
       y1="15.369057"
       x2="71.204407"
       y2="40.495617"
       id="linearGradient3293"
       xlink:href="#linearGradient4806-2-9"
       gradientUnits="userSpaceOnUse"
       gradientTransform="matrix(2.3268746,0,0,2.3268746,-135.94475,-32.84278)" />
    <linearGradient
       xlink:href="#linearGradient4140"
       id="linearGradient6915"
       x1="196"
       y1="152"
       x2="252"
       y2="208"
       gradientUnits="userSpaceOnUse"
       gradientTransform="translate(-191.5,-148)" />
    <linearGradient
       id="linearGradient4140">
      <stop
         id="stop4142"
         offset="0"
         style="stop-color:#f9c440;stop-opacity:1" />
      <stop
         style="stop-color:#fff394;stop-opacity:1"
         offset="0.50190115"
         id="stop5784" />
      <stop
         id="stop4144"
         offset="1"
         style="stop-color:#f9c440;stop-opacity:1" />
    </linearGradient>
    <radialGradient
       xlink:href="#linearGradient23419"
       id="radialGradient3300-9"
       gradientUnits="userSpaceOnUse"
       gradientTransform="matrix(0.3823536,7.5555777e-8,-1.8372241e-8,0.1115198,-5.9254271,36.335849)"
       cx="99.189415"
       cy="185.29727"
       fx="99.189415"
       fy="185.29727"
       r="62.769119" />
    <radialGradient
       xlink:href="#linearGradient23419"
       id="radialGradient4192"
       gradientUnits="userSpaceOnUse"
       gradientTransform="matrix(0.2549024,5.3967361e-8,-1.2248161e-8,0.07965545,6.7163816,44.240666)"
       cx="99.189415"
       cy="185.29727"
       fx="99.189415"
       fy="185.29727"
       r="62.769119" />
    <linearGradient
       id="linearGradient4658">
      <stop
         offset="0"
         style="stop-color:#fafafa;stop-opacity:1;"
         id="stop4660" />
      <stop
         offset="1"
         style="stop-color:#e2e1de;stop-opacity:1;"
         id="stop4662" />
    </linearGradient>
    <radialGradient
       gradientTransform="matrix(2.003784,0,0,1.4,27.98813,-17.4)"
       gradientUnits="userSpaceOnUse"
       xlink:href="#linearGradient3688-166-749-4-0-3-8-1"
       id="radialGradient3337-2-2-8"
       fy="43.5"
       fx="4.9929786"
       r="2.5"
       cy="43.5"
       cx="4.9929786" />
    <linearGradient
       id="linearGradient3688-166-749-4-0-3-8-1">
      <stop
         offset="0"
         style="stop-color:#181818;stop-opacity:1"
         id="stop2883-4-0-1-8-1" />
      <stop
         offset="1"
         style="stop-color:#181818;stop-opacity:0"
         id="stop2885-9-2-9-6-6" />
    </linearGradient>
    <radialGradient
       gradientTransform="matrix(2.003784,0,0,1.4,-20.01187,-104.4)"
       gradientUnits="userSpaceOnUse"
       xlink:href="#linearGradient3688-166-749-4-0-3-8-1"
       id="radialGradient3339-1-4-96"
       fy="43.5"
       fx="4.9929786"
       r="2.5"
       cy="43.5"
       cx="4.9929786" />
    <linearGradient
       id="linearGradient3702-501-757-8-4-1-1-4">
      <stop
         offset="0"
         style="stop-color:#181818;stop-opacity:0"
         id="stop2895-8-9-9-1-7" />
      <stop
         offset="0.5"
         style="stop-color:#181818;stop-opacity:1"
         id="stop2897-7-8-7-7-6" />
      <stop
         offset="1"
         style="stop-color:#181818;stop-opacity:0"
         id="stop2899-4-5-1-5-0" />
    </linearGradient>
    <linearGradient
       gradientUnits="userSpaceOnUse"
       xlink:href="#linearGradient3702-501-757-8-4-1-1-4"
       id="linearGradient5515"
       y2="39.999443"
       x2="25.058096"
       y1="47.027729"
       x1="25.058096" />
    <linearGradient
       id="linearGradient3924-2-2-5-8-0">
      <stop
         id="stop3926-9-4-9-6-6"
         style="stop-color:#ffffff;stop-opacity:1"
         offset="0" />
      <stop
         id="stop3928-9-8-6-5-1"
         style="stop-color:#ffffff;stop-opacity:0.23529412"
         offset="0.06316455" />
      <stop
         id="stop3930-3-5-1-7-98"
         style="stop-color:#ffffff;stop-opacity:0.15686275"
         offset="0.95056331" />
      <stop
         id="stop3932-8-0-4-8-60"
         style="stop-color:#ffffff;stop-opacity:0.39215687"
         offset="1" />
    </linearGradient>
    <linearGradient
       y2="43"
       x2="23.99999"
       y1="4.999989"
       x1="23.99999"
       gradientTransform="matrix(2.8648648,0,0,2.8648648,-4.7567512,-3.756748)"
       gradientUnits="userSpaceOnUse"
       id="linearGradient3681"
       xlink:href="#linearGradient3924-2-2-5-8-0" />
    <linearGradient
       y2="43"
       x2="23.99999"
       y1="4.999989"
       x1="23.99999"
       gradientTransform="matrix(2.8648648,0,0,2.8648648,-114.75675,12.243252)"
       gradientUnits="userSpaceOnUse"
       id="linearGradient3681-6"
       xlink:href="#linearGradient3924-2-2-5-8-0" />
    <linearGradient
       id="linearGradient3242-7-3-8-0-4-58-06">
      <stop
         offset="0"
         style="stop-color:#8cd5ff;stop-opacity:1"
         id="stop3244-5-8-5-6-4-3-8" />
      <stop
         offset="0.26238"
         style="stop-color:#64baff;stop-opacity:1"
         id="stop3246-9-5-1-5-3-0-7" />
      <stop
         offset="0.66093999"
         style="stop-color:#3689e6;stop-opacity:1"
         id="stop3248-7-2-0-7-5-35-9" />
      <stop
         offset="1"
         style="stop-color:#0d52bf;stop-opacity:1"
         id="stop3250-8-2-8-5-6-40-4" />
    </linearGradient>
    <linearGradient
       y2="48.395687"
       x2="25.132275"
       y1="15.499894"
       x1="25.132275"
       gradientTransform="matrix(2.5807734,0,0,2.4746518,2.0614434,-1.133976)"
       gradientUnits="userSpaceOnUse"
       id="linearGradient4556-9"
       xlink:href="#linearGradient4658" />
    <linearGradient
       gradientUnits="userSpaceOnUse"
       y2="48.933952"
       x2="24.169817"
       y1="-12.24244"
       x1="24.169817"
       id="linearGradient4654"
       xlink:href="#linearGradient3242-7-3-8-0-4-58-06"
       gradientTransform="matrix(2,0,0,2,0,1)" />
    <linearGradient
       y2="19.963179"
       x2="23.954144"
       y1="15.999304"
       x1="23.954144"
       gradientTransform="matrix(2.8,0,0,1,-3.1999972,21.000002)"
       gradientUnits="userSpaceOnUse"
       id="linearGradient4656"
       xlink:href="#linearGradient23419" />
    <linearGradient
       x1="302.85715"
       y1="366.64789"
       x2="302.85715"
       y2="609.50507"
       id="linearGradient3128"
       xlink:href="#linearGradient5048"
       gradientUnits="userSpaceOnUse"
       gradientTransform="matrix(0.09153846,0,0,0.02058823,-1.084616,49.45142)" />
    <linearGradient
       id="linearGradient5048">
      <stop
         id="stop5050"
         style="stop-color:#000000;stop-opacity:0"
         offset="0" />
      <stop
         id="stop5056"
         style="stop-color:#000000;stop-opacity:1"
         offset="0.5" />
      <stop
         id="stop5052"
         style="stop-color:#000000;stop-opacity:0"
         offset="1" />
    </linearGradient>
    <radialGradient
       cx="605.71429"
       cy="486.64789"
       r="117.14286"
       fx="605.71429"
       fy="486.64789"
       id="radialGradient3060"
       xlink:href="#linearGradient23419"
       gradientUnits="userSpaceOnUse"
       gradientTransform="matrix(-0.03132632,0,0,0.02058823,28.779136,49.45142)" />
    <radialGradient
       cx="605.71429"
       cy="486.64789"
       r="117.14286"
       fx="605.71429"
       fy="486.64789"
       id="radialGradient3057"
       xlink:href="#linearGradient23419"
       gradientUnits="userSpaceOnUse"
       gradientTransform="matrix(0.03132633,0,0,0.02058823,35.220859,49.45142)" />
    <linearGradient
       id="linearGradient3600-9">
      <stop
         id="stop3602-3"
         style="stop-color:#f4f4f4;stop-opacity:1"
         offset="0" />
      <stop
         id="stop3604-7"
         style="stop-color:#dbdbdb;stop-opacity:1"
         offset="1" />
    </linearGradient>
    <linearGradient
       x1="25.132275"
       y1="0.98520643"
       x2="25.132275"
       y2="47.013336"
       id="linearGradient3054"
       xlink:href="#linearGradient3600-9"
       gradientUnits="userSpaceOnUse"
       gradientTransform="matrix(1.3142827,0,0,1.2602393,0.4572141,-2.1793201)" />
    <linearGradient
       id="linearGradient3977-4">
      <stop
         id="stop3979-7"
         style="stop-color:#ffffff;stop-opacity:1"
         offset="0" />
      <stop
         id="stop3981-6"
         style="stop-color:#ffffff;stop-opacity:0.23529412"
         offset="0.01214366" />
      <stop
         id="stop3983-5"
         style="stop-color:#ffffff;stop-opacity:0.15686275"
         offset="0.98781353" />
      <stop
         id="stop3985-6"
         style="stop-color:#ffffff;stop-opacity:0.39215687"
         offset="1" />
    </linearGradient>
    <linearGradient
       x1="23.99999"
       y1="5.8641062"
       x2="23.99999"
       y2="42.100208"
       id="linearGradient3051"
       xlink:href="#linearGradient3977-4"
       gradientUnits="userSpaceOnUse"
       gradientTransform="matrix(1.2162162,0,0,1.5405376,2.8108184,-6.9729501)" />
    <linearGradient
       id="linearGradient3104-6">
      <stop
         id="stop3106-3"
         style="stop-color:#000000;stop-opacity:0.31782946"
         offset="0" />
      <stop
         id="stop3108-9"
         style="stop-color:#000000;stop-opacity:0.24031007"
         offset="1" />
    </linearGradient>
    <linearGradient
       x1="-51.786404"
       y1="50.786446"
       x2="-51.786404"
       y2="2.9062471"
       id="linearGradient3048"
       xlink:href="#linearGradient3104-6"
       gradientUnits="userSpaceOnUse"
       gradientTransform="matrix(1.0843523,0,0,1.1997367,79.550862,-4.1628601)" />
    <radialGradient
       gradientTransform="matrix(2.003784,0,0,1.4,27.98813,-17.4)"
       gradientUnits="userSpaceOnUse"
       xlink:href="#linearGradient3688-166-749-4-0-3-8-1"
       id="radialGradient4093"
       fy="43.5"
       fx="4.9929786"
       r="2.5"
       cy="43.5"
       cx="4.9929786" />
    <radialGradient
       gradientTransform="matrix(2.003784,0,0,1.4,-20.01187,-104.4)"
       gradientUnits="userSpaceOnUse"
       xlink:href="#linearGradient3688-166-749-4-0-3-8-1"
       id="radialGradient4095"
       fy="43.5"
       fx="4.9929786"
       r="2.5"
       cy="43.5"
       cx="4.9929786" />
    <linearGradient
       gradientUnits="userSpaceOnUse"
       xlink:href="#linearGradient3702-501-757-8-4-1-1-4"
       id="linearGradient4097"
       y2="39.999443"
       x2="25.058096"
       y1="47.027729"
       x1="25.058096" />
    <linearGradient
       id="linearGradient3242-7-3-8-0-4-58-06-3">
      <stop
         offset="0"
         style="stop-color:#cdf87e;stop-opacity:1"
         id="stop3244-5-8-5-6-4-3-8-6" />
      <stop
         offset="0.26238"
         style="stop-color:#a2e34f;stop-opacity:1"
         id="stop3246-9-5-1-5-3-0-7-7" />
      <stop
         offset="0.66093999"
         style="stop-color:#68b723;stop-opacity:1"
         id="stop3248-7-2-0-7-5-35-9-5" />
      <stop
         offset="1"
         style="stop-color:#1d7e0d;stop-opacity:1"
         id="stop3250-8-2-8-5-6-40-4-3" />
    </linearGradient>
    <linearGradient
       gradientTransform="matrix(2.7297298,0,0,2.7297298,-2.5135187,0.4877882)"
       gradientUnits="userSpaceOnUse"
       xlink:href="#linearGradient3924-2-2-5-8-0"
       id="linearGradient3202"
       y2="43"
       x2="23.99999"
       y1="4.999989"
       x1="23.99999" />
    <radialGradient
       gradientTransform="matrix(1.5563924,0,0,0.16978827,69.270354,101.13157)"
       gradientUnits="userSpaceOnUse"
       xlink:href="#linearGradient23419"
       id="radialGradient3213"
       fy="93.467628"
       fx="-4.0287771"
       r="35.338131"
       cy="93.467628"
       cx="-4.0287771" />
    <linearGradient
       gradientTransform="matrix(1.8727272,0,0,1.9230769,3.0727266,5.8456231)"
       gradientUnits="userSpaceOnUse"
       xlink:href="#linearGradient3242-7-3-8-0-4-58-06"
       id="linearGradient3278"
       y2="48.933952"
       x2="24.169817"
       y1="-12.24244"
       x1="24.169817" />
    <linearGradient
       gradientTransform="matrix(2.6000001,0,0,0.75,0.600002,27.999471)"
       gradientUnits="userSpaceOnUse"
       xlink:href="#linearGradient23419"
       id="linearGradient3285"
       y2="19.963179"
       x2="23.954144"
       y1="15.999304"
       x1="23.954144" />
    <linearGradient
       gradientTransform="matrix(2.3698469,0,0,2.2723986,6.1236811,5.2706189)"
       gradientUnits="userSpaceOnUse"
       xlink:href="#linearGradient4658"
       id="linearGradient3288-4"
       y2="48.395687"
       x2="25.132275"
       y1="15.499894"
       x1="25.132275" />
    <linearGradient
       gradientTransform="matrix(2.7297298,0,0,2.7297298,5.7431759,1.6898958)"
       gradientUnits="userSpaceOnUse"
       xlink:href="#linearGradient3924-2-2-5-8-0"
       id="linearGradient4108"
       y2="43"
       x2="23.99999"
       y1="4.999989"
       x1="23.99999" />
    <linearGradient
       gradientTransform="matrix(2.7297298,0,0,2.7297298,-2.5135182,0.4877902)"
       gradientUnits="userSpaceOnUse"
       xlink:href="#linearGradient3924-2-2-5-8-0"
       id="linearGradient4148"
       y2="43"
       x2="23.99999"
       y1="4.999989"
       x1="23.99999" />
    <radialGradient
       r="62.769119"
       fy="185.29727"
       fx="99.189415"
       cy="185.29727"
       cx="99.189415"
       gradientTransform="matrix(0.3823536,7.5555777e-8,-1.8372241e-8,0.1115198,-5.9254271,36.335849)"
       gradientUnits="userSpaceOnUse"
       id="radialGradient3300-9-0"
       xlink:href="#linearGradient23419" />
    <radialGradient
       r="62.769119"
       fy="185.29727"
       fx="99.189415"
       cy="185.29727"
       cx="99.189415"
       gradientTransform="matrix(0.2549024,5.3967361e-8,-1.2248161e-8,0.07965545,6.7163816,44.240666)"
       gradientUnits="userSpaceOnUse"
       id="radialGradient4192-6"
       xlink:href="#linearGradient23419" />
    <radialGradient
       cx="4.9929786"
       cy="43.5"
       r="2.5"
       fx="4.9929786"
       fy="43.5"
       id="radialGradient3337-2-2-8-1"
       xlink:href="#linearGradient3688-166-749-4-0-3-8-1"
       gradientUnits="userSpaceOnUse"
       gradientTransform="matrix(2.003784,0,0,1.4,27.98813,-17.4)" />
    <radialGradient
       cx="4.9929786"
       cy="43.5"
       r="2.5"
       fx="4.9929786"
       fy="43.5"
       id="radialGradient3339-1-4-96-9"
       xlink:href="#linearGradient3688-166-749-4-0-3-8-1"
       gradientUnits="userSpaceOnUse"
       gradientTransform="matrix(2.003784,0,0,1.4,-20.01187,-104.4)" />
    <linearGradient
       xlink:href="#linearGradient3924-2-2-5-8-0"
       id="linearGradient3681-2"
       gradientUnits="userSpaceOnUse"
       gradientTransform="matrix(1.4324324,0,0,1.4324324,-2.3783756,-1.8783739)"
       x1="23.99999"
       y1="4.999989"
       x2="23.99999"
       y2="43" />
    <linearGradient
       xlink:href="#linearGradient3924-2-2-5-8-0"
       id="linearGradient3681-6-2"
       gradientUnits="userSpaceOnUse"
       gradientTransform="matrix(1.4324324,0,0,1.4324324,-2.3783756,-1.8783738)"
       x1="23.99999"
       y1="4.999989"
       x2="23.99999"
       y2="43" />
    <linearGradient
       xlink:href="#linearGradient4658"
       id="linearGradient4556-9-1"
       gradientUnits="userSpaceOnUse"
       gradientTransform="matrix(1.2903867,0,0,1.2373259,1.0307217,-0.56698844)"
       x1="25.132275"
       y1="15.499894"
       x2="25.132275"
       y2="48.395687" />
    <linearGradient
       gradientTransform="translate(0,0.49999976)"
       xlink:href="#linearGradient3242-7-3-8-0-4-58-06"
       id="linearGradient4654-2"
       x1="24.169817"
       y1="-12.24244"
       x2="24.169817"
       y2="48.933952"
       gradientUnits="userSpaceOnUse" />
    <linearGradient
       xlink:href="#linearGradient23419"
       id="linearGradient4656-9"
       gradientUnits="userSpaceOnUse"
       gradientTransform="matrix(1.4,0,0,0.5,-1.5999986,10.500001)"
       x1="23.954144"
       y1="15.999304"
       x2="23.954144"
       y2="19.963179" />
    <radialGradient
       gradientTransform="matrix(-0.03132632,0,0,0.02058823,28.779136,49.45142)"
       gradientUnits="userSpaceOnUse"
       xlink:href="#linearGradient23419"
       id="radialGradient3060-4"
       fy="486.64789"
       fx="605.71429"
       r="117.14286"
       cy="486.64789"
       cx="605.71429" />
    <radialGradient
       gradientTransform="matrix(0.03132633,0,0,0.02058823,35.220859,49.45142)"
       gradientUnits="userSpaceOnUse"
       xlink:href="#linearGradient23419"
       id="radialGradient3057-7"
       fy="486.64789"
       fx="605.71429"
       r="117.14286"
       cy="486.64789"
       cx="605.71429" />
    <linearGradient
       xlink:href="#linearGradient4806-2-9"
       id="linearGradient8460"
       gradientUnits="userSpaceOnUse"
       gradientTransform="matrix(1.1838482,0,0,1.1838482,-61.44558,-8.99018)"
       x1="71.204407"
       y1="15.369057"
       x2="71.204407"
       y2="40.495617" />
    <linearGradient
       xlink:href="#linearGradient4806-2-9"
       id="linearGradient8456"
       gradientUnits="userSpaceOnUse"
       gradientTransform="matrix(1.3471377,0,0,-1.3471377,-73.23118,61.54055)"
       x1="71.204407"
       y1="15.369057"
       x2="71.204407"
       y2="40.495617" />
    <linearGradient
       xlink:href="#linearGradient4251"
       id="linearGradient8452"
       gradientUnits="userSpaceOnUse"
       gradientTransform="matrix(0.38749999,0,0,0.38749999,-154.19999,-83.67496)"
       x1="304"
       y1="98"
       x2="368"
       y2="210" />
    <linearGradient
       xlink:href="#linearGradient4806-2-9"
       id="linearGradient8448"
       gradientUnits="userSpaceOnUse"
       gradientTransform="matrix(1.5920718,0,0,1.5920718,-90.90958,-20.3661)"
       x1="71.204407"
       y1="15.369057"
       x2="71.204407"
       y2="40.495617" />
    <linearGradient
       xlink:href="#linearGradient4140"
       id="linearGradient8444"
       gradientUnits="userSpaceOnUse"
       gradientTransform="matrix(0.69491525,0,0,0.69491525,-131.31359,-101.08475)"
       x1="196"
       y1="152"
       x2="252"
       y2="208" />
    <radialGradient
       gradientTransform="matrix(0.25490241,0,0,0.08762273,-1.27539,25.1859)"
       gradientUnits="userSpaceOnUse"
       xlink:href="#linearGradient23419"
       id="radialGradient3018"
       fy="186.17059"
       fx="99.157013"
       r="62.769119"
       cy="186.17059"
       cx="99.157013" />
    <radialGradient
       gradientTransform="matrix(2.003784,0,0,1.4,27.98813,-17.4)"
       gradientUnits="userSpaceOnUse"
       xlink:href="#linearGradient3688-166-749-4-0-3-8-1"
       id="radialGradient3013"
       fy="43.5"
       fx="4.9929786"
       r="2.5"
       cy="43.5"
       cx="4.9929786" />
    <radialGradient
       gradientTransform="matrix(2.003784,0,0,1.4,-20.01187,-104.4)"
       gradientUnits="userSpaceOnUse"
       xlink:href="#linearGradient3688-166-749-4-0-3-8-1"
       id="radialGradient3015"
       fy="43.5"
       fx="4.9929786"
       r="2.5"
       cy="43.5"
       cx="4.9929786" />
    <linearGradient
       gradientTransform="translate(4e-6,0.75000619)"
       gradientUnits="userSpaceOnUse"
       xlink:href="#linearGradient3924-2-2-5-8-0"
       id="linearGradient3991"
       y2="43"
       x2="23.99999"
       y1="4.999989"
       x1="23.99999" />
    <linearGradient
       gradientTransform="matrix(0.70909089,0,0,0.70909089,1.309104,2.0590923)"
       gradientUnits="userSpaceOnUse"
       xlink:href="#linearGradient3242-7-3-8-0-4-58-06"
       id="linearGradient4036"
       y2="48.933952"
       x2="24.169817"
       y1="-12.24244"
       x1="24.169817" />
    <linearGradient
       gradientTransform="matrix(0.99999997,0,0,0.37500001,1.801756e-6,8.7500009)"
       gradientUnits="userSpaceOnUse"
       xlink:href="#linearGradient23419"
       id="linearGradient4043"
       y2="19.963179"
       x2="23.954144"
       y1="15.999304"
       x1="23.954144" />
    <linearGradient
       gradientTransform="matrix(0.89153988,0,0,0.8548797,2.6030444,1.4165388)"
       gradientUnits="userSpaceOnUse"
       xlink:href="#linearGradient4658"
       id="linearGradient4046-7"
       y2="48.395687"
       x2="25.132275"
       y1="15.499894"
       x1="25.132275" />
    <linearGradient
       gradientTransform="translate(4e-6,0.75000599)"
       gradientUnits="userSpaceOnUse"
       xlink:href="#linearGradient3924-2-2-5-8-0"
       id="linearGradient4100"
       y2="43"
       x2="23.99999"
       y1="4.999989"
       x1="23.99999" />
    <linearGradient
       y2="40.495617"
       x2="71.204407"
       y1="15.369057"
       x1="71.204407"
       gradientTransform="matrix(0.5306906,0,0,0.53069056,-26.30317,-2.78869)"
       gradientUnits="userSpaceOnUse"
       id="linearGradient7487"
       xlink:href="#linearGradient4806-2-9" />
    <linearGradient
       y2="210"
       x2="368"
       y1="98"
       x1="304"
       gradientTransform="matrix(0.18750001,0,0,0.18750001,-74.99999,-40.875)"
       gradientUnits="userSpaceOnUse"
       id="linearGradient7483"
       xlink:href="#linearGradient4251" />
    <linearGradient
       y2="40.495617"
       x2="71.204407"
       y1="15.369057"
       x1="71.204407"
       gradientTransform="matrix(0.77562477,0,0,0.77562473,-43.98156,-9.61425)"
       gradientUnits="userSpaceOnUse"
       id="linearGradient7475"
       xlink:href="#linearGradient4806-2-9" />
    <linearGradient
       y2="202"
       x2="384"
       y1="106"
       x1="288"
       gradientTransform="matrix(0.2,0,0,0.2,-55.19999,-18.80001)"
       gradientUnits="userSpaceOnUse"
       id="linearGradient6964"
       xlink:href="#linearGradient4140" />
    <radialGradient
       xlink:href="#linearGradient23419"
       id="radialGradient3090-9-3"
       gradientUnits="userSpaceOnUse"
       gradientTransform="matrix(1.1294118,0,0,0.2823525,-58.7294,19.69412)"
       cx="62.625"
       cy="4.625"
       fx="62.625"
       fy="4.625"
       r="10.625" />
    <radialGradient
       cx="4.9929786"
       cy="43.5"
       r="2.5"
       fx="4.9929786"
       fy="43.5"
       id="radialGradient3082-6"
       xlink:href="#linearGradient3688-166-749-4-0-3-8-1"
       gradientUnits="userSpaceOnUse"
       gradientTransform="matrix(2.003784,0,0,1.4,27.98813,-17.4)" />
    <radialGradient
       cx="4.9929786"
       cy="43.5"
       r="2.5"
       fx="4.9929786"
       fy="43.5"
       id="radialGradient3084-4"
       xlink:href="#linearGradient3688-166-749-4-0-3-8-1"
       gradientUnits="userSpaceOnUse"
       gradientTransform="matrix(2.003784,0,0,1.4,-20.01187,-104.4)" />
    <linearGradient
       x1="23.99999"
       y1="4.999989"
       x2="23.99999"
       y2="43"
       id="linearGradient3192"
       xlink:href="#linearGradient3924-2-2-5-8-0"
       gradientUnits="userSpaceOnUse"
       gradientTransform="matrix(0.45945947,0,0,0.45945947,0.9742189,0.9717503)" />
    <linearGradient
       x1="24.169817"
       y1="-12.24244"
       x2="24.169817"
       y2="48.933952"
       id="linearGradient3261"
       xlink:href="#linearGradient3242-7-3-8-0-4-58-06"
       gradientUnits="userSpaceOnUse"
       gradientTransform="matrix(0.34545454,0,0,0.34545454,0.945454,0.945482)" />
    <linearGradient
       x1="23.954144"
       y1="15.999304"
       x2="23.954144"
       y2="19.963179"
       id="linearGradient3265"
       xlink:href="#linearGradient23419"
       gradientUnits="userSpaceOnUse"
       gradientTransform="matrix(0.49999998,0,0,0.25,1.0885132e-6,4.0000009)" />
    <linearGradient
       x1="25.132275"
       y1="15.499894"
       x2="25.132275"
       y2="48.395687"
       id="linearGradient3268-1"
       xlink:href="#linearGradient4658"
       gradientUnits="userSpaceOnUse"
       gradientTransform="matrix(0.42230832,0,0,0.40494298,1.8646017,1.1780783)" />
    <linearGradient
       x1="23.99999"
       y1="4.999989"
       x2="23.99999"
       y2="43"
       id="linearGradient4125"
       xlink:href="#linearGradient3924-2-2-5-8-0"
       gradientUnits="userSpaceOnUse"
       gradientTransform="matrix(0.45945947,0,0,0.45945947,0.9742189,0.9717507)" />
    <linearGradient
       gradientTransform="matrix(1.0181566,0,0,-1.0195328,-0.21530444,32.481143)"
       gradientUnits="userSpaceOnUse"
       xlink:href="#linearGradient23419"
       id="linearGradient3223"
       y2="20.187275"
       x2="12.913282"
       y1="17.533852"
       x1="12.913282" />
    <linearGradient
       gradientTransform="matrix(2.3390655,0,0,2.3420385,9.8687579,11.713606)"
       gradientUnits="userSpaceOnUse"
       xlink:href="#linearGradient4095"
       id="linearGradient3233"
       y2="41.229313"
       x2="23.99999"
       y1="6.5493407"
       x1="23.99999" />
    <linearGradient
       id="linearGradient4095">
      <stop
         offset="0"
         style="stop-color:#ffffff;stop-opacity:1"
         id="stop4097" />
      <stop
         offset="0.01652508"
         style="stop-color:#ffffff;stop-opacity:0.23529412"
         id="stop4100" />
      <stop
         offset="0.98001981"
         style="stop-color:#ffffff;stop-opacity:0.15686275"
         id="stop4102" />
      <stop
         offset="1"
         style="stop-color:#ffffff;stop-opacity:0.39215687"
         id="stop4104" />
    </linearGradient>
    <radialGradient
       gradientTransform="matrix(0,4.6270127,-5.6804933,0,68.966159,-38.745063)"
       gradientUnits="userSpaceOnUse"
       xlink:href="#linearGradient2867-449-88-871-390-598-476-591-434-148-57-177-8-3-3-6-4-8-8-8-5"
       id="radialGradient3215"
       fy="9.9571075"
       fx="6.2001843"
       r="12.671875"
       cy="9.9571075"
       cx="6.7304144" />
    <linearGradient
       id="linearGradient2867-449-88-871-390-598-476-591-434-148-57-177-8-3-3-6-4-8-8-8-5">
      <stop
         offset="0"
         style="stop-color:#919caf;stop-opacity:1"
         id="stop3750-1-0-7-6-6-1-3-9-3" />
      <stop
         offset="0.26238"
         style="stop-color:#68758e;stop-opacity:1"
         id="stop3752-3-7-4-0-32-8-923-0-7" />
      <stop
         offset="0.704952"
         style="stop-color:#485a6c;stop-opacity:1"
         id="stop3754-1-8-5-2-7-6-7-1-9" />
      <stop
         offset="1"
         style="stop-color:#444c5c;stop-opacity:1"
         id="stop3756-1-6-2-6-6-1-96-6-0" />
    </linearGradient>
    <radialGradient
       gradientTransform="matrix(2.003784,0,0,1.4,27.98813,-17.4)"
       gradientUnits="userSpaceOnUse"
       xlink:href="#linearGradient3688-166-749-4-0-3-8-1"
       id="radialGradient3082-6-3"
       fy="43.5"
       fx="4.9929786"
       r="2.5"
       cy="43.5"
       cx="4.9929786" />
    <radialGradient
       gradientTransform="matrix(2.003784,0,0,1.4,-20.01187,-104.4)"
       gradientUnits="userSpaceOnUse"
       xlink:href="#linearGradient3688-166-749-4-0-3-8-1"
       id="radialGradient3084-4-5"
       fy="43.5"
       fx="4.9929786"
       r="2.5"
       cy="43.5"
       cx="4.9929786" />
    <linearGradient
       x1="76.523361"
       y1="-9.023138"
       x2="76.523361"
       y2="3.4508991"
       id="linearGradient3149"
       xlink:href="#linearGradient23419"
       gradientUnits="userSpaceOnUse"
       gradientTransform="matrix(0.89553576,0,0,-0.89663265,7.68362,69.70686)" />
    <linearGradient
       x1="23.99999"
       y1="4.999989"
       x2="23.99999"
       y2="43"
       id="linearGradient3159"
       xlink:href="#linearGradient3924-2-2-5-8-0"
       gradientUnits="userSpaceOnUse"
       gradientTransform="matrix(2.7297298,0,0,2.7297298,-0.5135132,1.4875374)" />
    <radialGradient
       cx="6.7304144"
       cy="9.9571075"
       r="12.671875"
       fx="6.2001843"
       fy="9.9571075"
       id="radialGradient3395"
       xlink:href="#linearGradient3600-9"
       gradientUnits="userSpaceOnUse"
       gradientTransform="matrix(0,4.703115,-5.7739226,0,70.090609,-39.017021)" />
    <radialGradient
       cx="4.9929786"
       cy="43.5"
       r="2.5"
       fx="4.9929786"
       fy="43.5"
       id="radialGradient2455-1"
       xlink:href="#linearGradient3688-166-749-4-0-3-8-1"
       gradientUnits="userSpaceOnUse"
       gradientTransform="matrix(2.003784,0,0,1.4,27.98813,-17.4)" />
    <radialGradient
       cx="4.9929786"
       cy="43.5"
       r="2.5"
       fx="4.9929786"
       fy="43.5"
       id="radialGradient2457-5"
       xlink:href="#linearGradient3688-166-749-4-0-3-8-1"
       gradientUnits="userSpaceOnUse"
       gradientTransform="matrix(2.003784,0,0,1.4,-20.01187,-104.4)" />
    <radialGradient
       cx="-4.0287771"
       cy="93.467628"
       r="35.338131"
       fx="-4.0287771"
       fy="93.467628"
       id="radialGradient4377"
       xlink:href="#linearGradient23419"
       gradientUnits="userSpaceOnUse"
       gradientTransform="matrix(0.29656025,0,0,0.0318353,13.21489,19.524429)" />
    <radialGradient
       cx="6.7304144"
       cy="9.9571075"
       r="12.671875"
       fx="6.2001843"
       fy="9.9571075"
       id="radialGradient3395-3"
       xlink:href="#linearGradient3600-9"
       gradientUnits="userSpaceOnUse"
       gradientTransform="matrix(0,25.083279,-30.794253,0,373.81658,-208.09078)" />
    <radialGradient
       cx="6.7304144"
       cy="9.9571075"
       r="12.671875"
       fx="6.2001843"
       fy="9.9571075"
       id="radialGradient3395-35"
       xlink:href="#linearGradient3600-9"
       gradientUnits="userSpaceOnUse"
       gradientTransform="matrix(0,25.083279,-6.0635855,0,84.44864,-208.09078)" />
    <linearGradient
       inkscape:collect="always"
       xlink:href="#linearGradient1107"
       id="linearGradient1109"
       x1="12.844522"
       y1="67.001022"
       x2="39.01009"
       y2="67.001022"
       gradientUnits="userSpaceOnUse"
       gradientTransform="matrix(0.14331811,0,0,0.1875,0.97164742,-24.750191)" />
    <linearGradient
       inkscape:collect="always"
       xlink:href="#linearGradient4806-2-9"
       id="linearGradient1145"
       x1="12.998976"
       y1="62.001019"
       x2="32.998978"
       y2="62.001019"
       gradientUnits="userSpaceOnUse"
       gradientTransform="matrix(0.10352069,0,0,0.17525428,2.1327821,-23.982053)" />
    <radialGradient
       inkscape:collect="always"
       xlink:href="#linearGradient2867-449-88-871-390-598-476-591-434-148-57-177-8-3-3-6-4-8-8-8-5"
       id="radialGradient1824"
       cx="65.99044"
       cy="18.994976"
       fx="65.99044"
       fy="18.994976"
       r="3.5"
       gradientUnits="userSpaceOnUse"
       gradientTransform="matrix(-1.564483e-7,0.26785716,-0.26785714,-1.0714286e-7,17.581333,-13.616766)" />
    <filter
       inkscape:collect="always"
       style="color-interpolation-filters:sRGB"
       id="filter2330"
       x="-0.15082753"
       width="1.3016551"
       y="-0.15082753"
       height="1.3016551">
      <feGaussianBlur
         inkscape:collect="always"
         stdDeviation="0.3770688"
         id="feGaussianBlur2332" />
    </filter>
  </defs>
  <metadata
     id="metadata7">
    <rdf:RDF>
      <cc:Work
         rdf:about="">
        <dc:format>image/svg+xml</dc:format>
        <dc:type
           rdf:resource="http://purl.org/dc/dcmitype/StillImage" />
        <dc:title></dc:title>
      </cc:Work>
    </rdf:RDF>
  </metadata>
  <path
     inkscape:connector-curvature="0"
     d="m 22.500001,22.5 a 10.479885,1.1250002 0 0 1 -20.9597708,0 10.479885,1.1250002 0 1 1 20.9597708,0 z"
     id="path3041"
     style="color:#000000;display:inline;overflow:visible;visibility:visible;opacity:0.2;fill:url(#radialGradient4377);fill-opacity:1;fill-rule:nonzero;stroke:none;stroke-width:1;marker:none;enable-background:accumulate" />
  <g
     transform="matrix(0.50624981,0,0,0.10416676,0.03749949,17.791857)"
     id="g2036"
     style="display:inline;stroke-width:5.33331">
    <g
       transform="matrix(1.052632,0,0,1.285713,-1.263158,-13.42854)"
       id="g3712"
       style="opacity:0.4;stroke-width:5.33331">
      <rect
         width="5"
         height="7"
         x="38"
         y="40"
         id="rect2801"
         style="fill:url(#radialGradient2455-1);fill-opacity:1;stroke:none;stroke-width:5.33331" />
      <rect
         width="5"
         height="7"
         x="-10"
         y="-47"
         transform="scale(-1)"
         id="rect3696"
         style="fill:url(#radialGradient2457-5);fill-opacity:1;stroke:none;stroke-width:5.33331" />
      <rect
         width="28"
         height="7.0000005"
         x="10"
         y="40"
         id="rect3700"
         style="fill:url(#linearGradient5515);fill-opacity:1;stroke:none;stroke-width:5.33331" />
    </g>
  </g>
  <rect
     width="19.3125"
     height="19.3125"
     rx="1.125"
     ry="1.1247442"
     x="2.5312498"
     y="2.9064419"
     id="rect5505-21-3"
     style="color:#000000;display:inline;overflow:visible;visibility:visible;fill:url(#radialGradient3395);fill-opacity:1;fill-rule:nonzero;stroke:none;stroke-width:1;marker:none;enable-background:accumulate" />
  <path
     d="m 16.990802,8.4236835 h 0.302297 V 8.0710043 h 1.13361 v 0.3526792 h 0.302297 V 8.0710043 h 0.978265 V 7.789701 H 18.729006 V 7.5 h -0.302297 v 0.289701 h -1.13361 V 7.5 h -0.302297 v 0.289701 h -0.944673 v 0.2813033 h 0.944673 z M 16.24346,8.583228 c 0.235119,0.1301558 0.55001,0.3190913 0.701159,0.4450478 l 0.193135,-0.235119 C 16.97401,8.6713988 16.659118,8.4908595 16.423999,8.3733 Z m 0.617188,0.9992573 C 16.701101,9.4523303 16.386209,9.2801888 16.138495,9.1794232 l -0.176339,0.2141273 c 0.247714,0.113361 0.55421,0.2980973 0.709557,0.4324515 z M 16.27285,11.316491 c 0.256111,-0.306495 0.558408,-0.717954 0.793526,-1.066435 l -0.188935,-0.222523 c -0.264509,0.37787 -0.604591,0.797726 -0.831313,1.049639 z m 1.633239,-2.4729522 h 1.150404 C 18.909544,9.0240773 18.712213,9.1920195 18.485491,9.3389693 18.246172,9.1920195 18.040443,9.0366728 17.880898,8.872929 Z m 1.179795,1.4904882 v 0.571005 h -1.318347 v -0.571005 z m 0.218327,-1.750799 -0.05038,0.016792 h -1.158803 c 0.06298,-0.088169 0.117559,-0.1679415 0.17214,-0.251913 L 17.960673,8.28933 C 17.780136,8.6000235 17.448449,8.99049 17.0118,9.2843888 17.08318,9.3263738 17.17974,9.410346 17.234322,9.4733243 17.402265,9.347367 17.56181,9.208815 17.696163,9.070263 c 0.155348,0.146949 0.331687,0.2897003 0.529019,0.4240545 -0.373671,0.2057288 -0.801924,0.3610755 -1.192391,0.4492455 0.05878,0.054585 0.125958,0.176339 0.155348,0.251914 0.09237,-0.02519 0.188935,-0.05459 0.281302,-0.08397 v 1.221781 H 17.76754 V 11.15275 h 1.318347 v 0.180538 h 0.306495 V 10.086313 H 17.54921 c 0.319091,-0.1049628 0.63818,-0.2519125 0.936279,-0.4282525 0.373672,0.218325 0.780932,0.3988635 1.167198,0.5080255 0.04619,-0.07977 0.130157,-0.1931335 0.197333,-0.2561118 C 19.488945,9.817605 19.09848,9.6706552 18.75,9.4901167 19.056493,9.2717917 19.325201,9.0072825 19.501541,8.7091852 Z"
     id="path960-3"
     inkscape:connector-curvature="0"
     style="font-style:normal;font-weight:normal;font-size:26.6667px;line-height:1.25;font-family:sans-serif;letter-spacing:0px;word-spacing:0px;fill:#ffffff;fill-opacity:0.777447;stroke:none;stroke-width:1" />
  <path
     d="m 16.990802,8.2361835 h 0.302297 V 7.8835043 h 1.13361 v 0.3526792 h 0.302297 V 7.8835043 h 0.978265 V 7.602201 H 18.729006 V 7.3125 h -0.302297 v 0.289701 h -1.13361 V 7.3125 h -0.302297 v 0.289701 h -0.944673 v 0.2813032 h 0.944673 z M 16.24346,8.395728 c 0.235119,0.1301558 0.55001,0.3190913 0.701159,0.4450478 l 0.193135,-0.235119 C 16.97401,8.4838988 16.659118,8.3033595 16.423999,8.1858 Z m 0.617188,0.9992573 C 16.701101,9.2648303 16.386209,9.0926888 16.138495,8.9919232 l -0.176339,0.2141273 c 0.247714,0.113361 0.55421,0.2980973 0.709557,0.4324515 z M 16.27285,11.128991 c 0.256111,-0.306495 0.558408,-0.717954 0.793526,-1.066435 L 16.877441,9.840033 c -0.264509,0.37787 -0.604591,0.797726 -0.831313,1.049639 z m 1.633239,-2.4729522 h 1.150404 C 18.909545,8.8365773 18.712213,9.0045195 18.485491,9.1514693 18.246172,9.0045195 18.040443,8.8491728 17.880898,8.685429 Z m 1.179795,1.4904882 v 0.571005 h -1.318347 v -0.571005 z m 0.218327,-1.750799 -0.05038,0.016792 h -1.158803 c 0.06298,-0.088169 0.117559,-0.1679415 0.17214,-0.251913 L 17.960673,8.10183 C 17.780136,8.4125235 17.448449,8.80299 17.0118,9.0968888 17.08318,9.1388738 17.17974,9.222846 17.234322,9.2858243 17.402265,9.159867 17.56181,9.021315 17.696163,8.882763 c 0.155348,0.146949 0.331687,0.2897003 0.529019,0.4240545 -0.373671,0.2057288 -0.801924,0.3610755 -1.192391,0.4492455 0.05878,0.054585 0.125958,0.1763392 0.155348,0.251914 0.09237,-0.025193 0.188935,-0.054585 0.281302,-0.083972 v 1.221781 h 0.298099 v -0.180538 h 1.318347 v 0.180538 h 0.306495 V 9.8988135 H 17.54921 c 0.319091,-0.1049633 0.63818,-0.251913 0.936279,-0.428253 0.373672,0.218325 0.780933,0.3988635 1.1672,0.508026 0.04619,-0.079773 0.130155,-0.193134 0.197331,-0.2561123 C 19.488946,9.630105 19.09848,9.4831552 18.75,9.3026167 19.056493,9.0842917 19.325201,8.8197825 19.501541,8.5216852 Z"
     id="path960"
     inkscape:connector-curvature="0"
     style="font-style:normal;font-weight:normal;font-size:26.6667px;line-height:1.25;font-family:sans-serif;letter-spacing:0px;word-spacing:0px;fill:#808080;fill-opacity:1;stroke:none;stroke-width:1" />
  <path
     d="m 18.876489,14.695251 v 0.256112 h -2.065691 v -0.256112 z m -2.065691,0.72635 v -0.268707 h 2.065691 v 0.268707 z m -0.302295,0.356878 h 0.302295 v -0.138553 h 2.065691 v 0.130156 h 0.310694 v -1.288957 h -2.67868 z m 1.4569,-2.876013 h 0.894292 v 0.247715 h -0.894292 z m 0,-0.470238 h 0.894292 v 0.235119 h -0.894292 z m 0,1.620644 v -0.247716 h 1.431708 V 13.59103 h -1.431709 v -0.230921 h 1.200788 v -0.457643 h 0.512224 V 12.667347 H 19.16619 v -0.445048 h -1.200788 v -0.293898 h -0.306495 v 0.293898 h -1.238574 v 0.209928 h 1.238574 v 0.235119 h -1.679423 v 0.23512 h 1.679423 v 0.247715 h -1.284759 v 0.209927 h 1.284759 v 0.230922 h -1.402318 v 0.214126 h 1.402318 v 0.247715 h -1.687821 v 0.230921 h 3.711528 v -0.230921 z"
     id="path962-6"
     inkscape:connector-curvature="0"
     style="font-style:normal;font-weight:normal;font-size:26.6667px;line-height:1.25;font-family:sans-serif;letter-spacing:0px;word-spacing:0px;fill:#ffffff;fill-opacity:0.777447;stroke:none;stroke-width:1" />
  <path
     d="m 18.876489,14.507751 v 0.256112 h -2.065691 v -0.256112 z m -2.065691,0.72635 v -0.268707 h 2.065691 v 0.268707 z m -0.302295,0.356878 h 0.302295 v -0.138553 h 2.065691 v 0.130156 h 0.310694 v -1.288957 h -2.67868 z m 1.4569,-2.876013 h 0.894292 v 0.247715 h -0.894292 z m 0,-0.470238 h 0.894292 v 0.235119 h -0.894292 z m 0,1.620644 v -0.247716 h 1.431708 V 13.40353 h -1.431709 v -0.230921 h 1.200788 v -0.457643 h 0.512224 V 12.479847 H 19.16619 v -0.445048 h -1.200788 v -0.293898 h -0.306495 v 0.293898 h -1.238574 v 0.209928 h 1.238574 v 0.235119 h -1.679423 v 0.23512 h 1.679423 v 0.247715 h -1.284759 v 0.209927 h 1.284759 v 0.230922 h -1.402318 v 0.214126 h 1.402318 v 0.247715 h -1.687821 v 0.230921 h 3.711528 v -0.230921 z"
     id="path962"
     inkscape:connector-curvature="0"
     style="font-style:normal;font-weight:normal;font-size:26.6667px;line-height:1.25;font-family:sans-serif;letter-spacing:0px;word-spacing:0px;fill:#808080;fill-opacity:1;stroke:none;stroke-width:1" />
  <path
     d="m 17.930415,16.834453 c 0.0084,0.03359 0.01679,0.07138 0.02939,0.104964 -0.403061,0.02099 -0.881697,0.0084 -1.385525,-0.05038 l 0.02099,0.306495 c 0.52482,0.04619 1.037045,0.05459 1.444304,0.02939 0.03359,0.100766 0.07138,0.209928 0.113362,0.327488 0.02519,0.07138 0.05459,0.142751 0.08397,0.218325 -0.474438,0.04199 -1.112618,0.04619 -1.742403,-0.02099 l 0.01679,0.314892 c 0.646577,0.04618 1.335142,0.03779 1.847365,-0.0084 0.09237,0.205729 0.201531,0.411459 0.327488,0.604593 -0.134354,-0.01679 -0.407261,-0.04619 -0.629784,-0.07138 l -0.02939,0.256113 c 0.289701,0.03359 0.684366,0.07138 0.919485,0.134353 L 19.1186,18.723808 c -0.05879,-0.05878 -0.109165,-0.113361 -0.155348,-0.180538 -0.109162,-0.159545 -0.205729,-0.340084 -0.293899,-0.520622 0.293899,-0.04199 0.558407,-0.09657 0.75994,-0.151148 l -0.05038,-0.314893 c -0.197332,0.06298 -0.491231,0.138553 -0.839711,0.180538 -0.03359,-0.08397 -0.06718,-0.17214 -0.09657,-0.251913 -0.02938,-0.08817 -0.06298,-0.184737 -0.09237,-0.2897 0.2897,-0.03778 0.587798,-0.100766 0.827115,-0.167943 l -0.04618,-0.302296 c -0.268708,0.08817 -0.562609,0.151148 -0.860705,0.188935 -0.04618,-0.167942 -0.08397,-0.340083 -0.100766,-0.499628 l -0.356878,0.04619 c 0.04199,0.11756 0.08397,0.247715 0.11756,0.373671 z m -0.827115,1.817976 -0.327488,-0.06718 c -0.09237,0.184737 -0.167943,0.361077 -0.163744,0.600395 0.0042,0.537417 0.46604,0.780932 1.288957,0.780932 0.356878,0 0.688565,-0.02519 0.982462,-0.07138 l 0.0126,-0.335884 c -0.302296,0.06298 -0.608789,0.08817 -0.999256,0.08817 -0.659174,0 -0.969867,-0.172142 -0.969867,-0.520622 0,-0.184736 0.07557,-0.327489 0.17634,-0.474437 z"
     id="path964-0"
     inkscape:connector-curvature="0"
     style="font-style:normal;font-weight:normal;font-size:26.6667px;line-height:1.25;font-family:sans-serif;letter-spacing:0px;word-spacing:0px;fill:#ffffff;fill-opacity:0.777447;stroke:none;stroke-width:1" />
  <path
     d="m 17.930415,16.646953 c 0.0084,0.03359 0.01679,0.07138 0.02939,0.104964 -0.403061,0.02099 -0.881697,0.0084 -1.385525,-0.05038 l 0.02099,0.306495 c 0.52482,0.04619 1.037045,0.05459 1.444304,0.02939 0.03359,0.100766 0.07138,0.209928 0.113362,0.327488 0.02519,0.07138 0.05459,0.142751 0.08397,0.218325 -0.474438,0.04199 -1.112618,0.04619 -1.742403,-0.02099 l 0.01679,0.314892 c 0.646577,0.04618 1.335142,0.03779 1.847365,-0.0084 0.09237,0.205729 0.201531,0.411459 0.327488,0.604593 -0.134354,-0.01679 -0.407261,-0.04619 -0.629784,-0.07138 l -0.02939,0.256112 c 0.289701,0.03358 0.684366,0.07138 0.919485,0.134354 L 19.1186,18.536308 c -0.05879,-0.05878 -0.109165,-0.113361 -0.155348,-0.180538 -0.109162,-0.159545 -0.205729,-0.340084 -0.293899,-0.520622 0.293899,-0.04199 0.558409,-0.09657 0.75994,-0.151148 l -0.05038,-0.314893 c -0.197332,0.06298 -0.491231,0.138553 -0.839711,0.180538 -0.03359,-0.08397 -0.06718,-0.17214 -0.09657,-0.251913 -0.02938,-0.08817 -0.06298,-0.184737 -0.09237,-0.2897 0.2897,-0.03778 0.587798,-0.100766 0.827115,-0.167943 l -0.04618,-0.302296 c -0.268708,0.08817 -0.562609,0.151148 -0.860705,0.188935 -0.04618,-0.167942 -0.08397,-0.340083 -0.100766,-0.499628 l -0.356878,0.04619 c 0.04199,0.11756 0.08397,0.247715 0.11756,0.373671 z m -0.827115,1.817976 -0.327488,-0.06718 c -0.09237,0.184738 -0.167943,0.361077 -0.163744,0.600395 0.0042,0.537417 0.46604,0.780932 1.288957,0.780932 0.356878,0 0.688565,-0.02519 0.982462,-0.07138 l 0.0126,-0.335884 c -0.302296,0.06298 -0.608789,0.08817 -0.999256,0.08817 -0.659174,0 -0.969867,-0.172142 -0.969867,-0.520622 0,-0.184736 0.07557,-0.327488 0.17634,-0.474437 z"
     id="path964"
     inkscape:connector-curvature="0"
     style="font-style:normal;font-weight:normal;font-size:26.6667px;line-height:1.25;font-family:sans-serif;letter-spacing:0px;word-spacing:0px;fill:#808080;fill-opacity:1;stroke:none;stroke-width:1" />
  <rect
     width="19.3125"
     height="19.3125"
     rx="1.125"
     ry="1.1247449"
     x="2.5312498"
     y="2.9064412"
     id="rect5505-21-3-5"
     style="color:#000000;display:inline;overflow:visible;visibility:visible;opacity:0.285047;fill:none;fill-opacity:1;fill-rule:nonzero;stroke:#1c2c38;stroke-width:1;stroke-opacity:1;marker:none;enable-background:accumulate" />
  <rect
     width="2.9066858"
     height="19.3125"
     rx="0.75083733"
     ry="1.125"
     x="2.9064419"
     y="-21.84375"
     id="rect5505-21-3-9"
     style="color:#000000;display:inline;overflow:visible;visibility:visible;fill:url(#linearGradient1109);fill-opacity:1;fill-rule:nonzero;stroke:#a66700;stroke-width:1;stroke-opacity:0.379525;marker:none;enable-background:accumulate"
     transform="rotate(90)" />
  <rect
     width="1.3973312"
     height="17.711809"
     rx="0.49977773"
     ry="0.87525558"
     x="3.633832"
     y="-21.090359"
     id="rect5505-21-3-9-9"
     style="color:#000000;display:inline;overflow:visible;visibility:visible;fill:none;fill-opacity:1;fill-rule:nonzero;stroke:url(#linearGradient1145);stroke-width:0.999991;stroke-opacity:0.379525;marker:none;enable-background:accumulate"
     transform="rotate(90)" />
  <circle
     style="opacity:0.548821;fill:#000000;fill-opacity:1;stroke:none;stroke-width:5.33331;stroke-linecap:square;stroke-linejoin:round;stroke-opacity:0.379525;filter:url(#filter2330)"
     id="path1816-7"
     cx="67.904968"
     cy="22.904964"
     r="3"
     transform="matrix(0.1875,0,0,0.1875,0.04847197,0.19066966)" />
  <circle
     style="opacity:1;fill:url(#radialGradient1824);fill-opacity:1;stroke:none;stroke-width:1;stroke-linecap:square;stroke-linejoin:round;stroke-miterlimit:4;stroke-dasharray:none;stroke-opacity:0.379525"
     id="path1816"
     cx="12.692931"
     cy="4.2626982"
     r="0.5625" />
</svg>
