<?xml version="1.0" encoding="UTF-8" standalone="no"?>
<svg
   xmlns:dc="http://purl.org/dc/elements/1.1/"
   xmlns:cc="http://creativecommons.org/ns#"
   xmlns:rdf="http://www.w3.org/1999/02/22-rdf-syntax-ns#"
   xmlns:svg="http://www.w3.org/2000/svg"
   xmlns="http://www.w3.org/2000/svg"
   xmlns:xlink="http://www.w3.org/1999/xlink"
   xmlns:sodipodi="http://sodipodi.sourceforge.net/DTD/sodipodi-0.dtd"
   xmlns:inkscape="http://www.inkscape.org/namespaces/inkscape"
   width="64"
   height="64"
   viewBox="0 0 64 64"
   id="svg2"
   version="1.1"
   inkscape:version="1.0.1 (3bc2e813f5, 2020-09-07)"
   sodipodi:docname="com.github.lainsce.rakugaki.svg"
   inkscape:export-filename="/home/lainsce/Documenti/Projects/timetable/data/icon.png"
   inkscape:export-xdpi="96"
   inkscape:export-ydpi="96">
  <sodipodi:namedview
     pagecolor="#ffffff"
     bordercolor="#666666"
     borderopacity="1"
     objecttolerance="10"
     gridtolerance="10"
     guidetolerance="10"
     inkscape:pageopacity="0"
     inkscape:pageshadow="2"
     inkscape:window-width="2560"
     inkscape:window-height="958"
     id="namedview40"
     showgrid="true"
     inkscape:zoom="8"
     inkscape:cx="31.995644"
     inkscape:cy="44.348176"
     inkscape:window-x="0"
     inkscape:window-y="30"
     inkscape:window-maximized="1"
     inkscape:current-layer="svg2"
     inkscape:document-rotation="0"
     inkscape:snap-global="false">
    <inkscape:grid
       type="xygrid"
       id="grid845" />
  </sodipodi:namedview>
  <defs
     id="defs4">
    <linearGradient
       inkscape:collect="always"
       id="linearGradient1107">
      <stop
         style="stop-color:#edd09b;stop-opacity:1"
         offset="0"
         id="stop1103" />
      <stop
         style="stop-color:#cc9c50;stop-opacity:1"
         offset="0.55798048"
         id="stop1111" />
      <stop
         style="stop-color:#b37f19;stop-opacity:1"
         offset="1"
         id="stop1105" />
    </linearGradient>
    <linearGradient
       id="linearGradient23419">
      <stop
         id="stop23421"
         style="stop-color:#000000;stop-opacity:1"
         offset="0" />
      <stop
         id="stop23423"
         style="stop-color:#000000;stop-opacity:0"
         offset="1" />
    </linearGradient>
    <linearGradient
       xlink:href="#linearGradient4806-2-9"
       id="linearGradient6927"
       gradientUnits="userSpaceOnUse"
       gradientTransform="matrix(1.7553612,0,0,1.7553612,-94.69513,-16.91647)"
       x1="71.204407"
       y1="15.369057"
       x2="71.204407"
       y2="40.495617" />
    <linearGradient
       id="linearGradient4806-2-9">
      <stop
         id="stop4808-4-6"
         style="stop-color:#ffffff;stop-opacity:1"
         offset="0" />
      <stop
         id="stop4810-0-9"
         style="stop-color:#ffffff;stop-opacity:0.23529412"
         offset="0.42447853" />
      <stop
         id="stop4812-8-7"
         style="stop-color:#ffffff;stop-opacity:0.15686275"
         offset="0.82089913" />
      <stop
         id="stop4814-0-7"
         style="stop-color:#ffffff;stop-opacity:0.39215687"
         offset="1" />
    </linearGradient>
    <linearGradient
       xlink:href="#linearGradient4806-2-9"
       id="linearGradient6923"
       gradientUnits="userSpaceOnUse"
       gradientTransform="matrix(1.9186506,0,0,-1.9186506,-106.48073,85.46685)"
       x1="71.204407"
       y1="15.369057"
       x2="71.204407"
       y2="40.495617" />
    <linearGradient
       xlink:href="#linearGradient4251"
       id="linearGradient6919"
       gradientUnits="userSpaceOnUse"
       gradientTransform="matrix(0.5625,0,0,0.5625,-221,-118.62498)"
       x1="304"
       y1="98"
       x2="368"
       y2="210" />
    <linearGradient
       id="linearGradient4251">
      <stop
         id="stop4259"
         offset="0"
         style="stop-color:#cccccc;stop-opacity:1" />
      <stop
         style="stop-color:#f4f4f4;stop-opacity:1"
         offset="0.51999998"
         id="stop6460" />
      <stop
         style="stop-color:#c1c1c1;stop-opacity:1"
         offset="1"
         id="stop4183" />
    </linearGradient>
    <linearGradient
       x1="71.204407"
       y1="15.369057"
       x2="71.204407"
       y2="40.495617"
       id="linearGradient3293"
       xlink:href="#linearGradient4806-2-9"
       gradientUnits="userSpaceOnUse"
       gradientTransform="matrix(2.3268746,0,0,2.3268746,-135.94475,-32.84278)" />
    <linearGradient
       xlink:href="#linearGradient4140"
       id="linearGradient6915"
       x1="196"
       y1="152"
       x2="252"
       y2="208"
       gradientUnits="userSpaceOnUse"
       gradientTransform="translate(-191.5,-148)" />
    <linearGradient
       id="linearGradient4140">
      <stop
         id="stop4142"
         offset="0"
         style="stop-color:#f9c440;stop-opacity:1" />
      <stop
         style="stop-color:#fff394;stop-opacity:1"
         offset="0.50190115"
         id="stop5784" />
      <stop
         id="stop4144"
         offset="1"
         style="stop-color:#f9c440;stop-opacity:1" />
    </linearGradient>
    <radialGradient
       xlink:href="#linearGradient23419"
       id="radialGradient3300-9"
       gradientUnits="userSpaceOnUse"
       gradientTransform="matrix(0.3823536,7.5555777e-8,-1.8372241e-8,0.1115198,-5.9254271,36.335849)"
       cx="99.189415"
       cy="185.29727"
       fx="99.189415"
       fy="185.29727"
       r="62.769119" />
    <radialGradient
       xlink:href="#linearGradient23419"
       id="radialGradient4192"
       gradientUnits="userSpaceOnUse"
       gradientTransform="matrix(0.2549024,5.3967361e-8,-1.2248161e-8,0.07965545,6.7163816,44.240666)"
       cx="99.189415"
       cy="185.29727"
       fx="99.189415"
       fy="185.29727"
       r="62.769119" />
    <linearGradient
       id="linearGradient4658">
      <stop
         offset="0"
         style="stop-color:#fafafa;stop-opacity:1;"
         id="stop4660" />
      <stop
         offset="1"
         style="stop-color:#e2e1de;stop-opacity:1;"
         id="stop4662" />
    </linearGradient>
    <radialGradient
       gradientTransform="matrix(2.003784,0,0,1.4,27.98813,-17.4)"
       gradientUnits="userSpaceOnUse"
       xlink:href="#linearGradient3688-166-749-4-0-3-8-1"
       id="radialGradient3337-2-2-8"
       fy="43.5"
       fx="4.9929786"
       r="2.5"
       cy="43.5"
       cx="4.9929786" />
    <linearGradient
       id="linearGradient3688-166-749-4-0-3-8-1">
      <stop
         offset="0"
         style="stop-color:#181818;stop-opacity:1"
         id="stop2883-4-0-1-8-1" />
      <stop
         offset="1"
         style="stop-color:#181818;stop-opacity:0"
         id="stop2885-9-2-9-6-6" />
    </linearGradient>
    <radialGradient
       gradientTransform="matrix(2.003784,0,0,1.4,-20.01187,-104.4)"
       gradientUnits="userSpaceOnUse"
       xlink:href="#linearGradient3688-166-749-4-0-3-8-1"
       id="radialGradient3339-1-4-96"
       fy="43.5"
       fx="4.9929786"
       r="2.5"
       cy="43.5"
       cx="4.9929786" />
    <linearGradient
       id="linearGradient3702-501-757-8-4-1-1-4">
      <stop
         offset="0"
         style="stop-color:#181818;stop-opacity:0"
         id="stop2895-8-9-9-1-7" />
      <stop
         offset="0.5"
         style="stop-color:#181818;stop-opacity:1"
         id="stop2897-7-8-7-7-6" />
      <stop
         offset="1"
         style="stop-color:#181818;stop-opacity:0"
         id="stop2899-4-5-1-5-0" />
    </linearGradient>
    <linearGradient
       gradientUnits="userSpaceOnUse"
       xlink:href="#linearGradient3702-501-757-8-4-1-1-4"
       id="linearGradient5515"
       y2="39.999443"
       x2="25.058096"
       y1="47.027729"
       x1="25.058096" />
    <linearGradient
       id="linearGradient3924-2-2-5-8-0">
      <stop
         id="stop3926-9-4-9-6-6"
         style="stop-color:#ffffff;stop-opacity:1"
         offset="0" />
      <stop
         id="stop3928-9-8-6-5-1"
         style="stop-color:#ffffff;stop-opacity:0.23529412"
         offset="0.06316455" />
      <stop
         id="stop3930-3-5-1-7-98"
         style="stop-color:#ffffff;stop-opacity:0.15686275"
         offset="0.95056331" />
      <stop
         id="stop3932-8-0-4-8-60"
         style="stop-color:#ffffff;stop-opacity:0.39215687"
         offset="1" />
    </linearGradient>
    <linearGradient
       y2="43"
       x2="23.99999"
       y1="4.999989"
       x1="23.99999"
       gradientTransform="matrix(2.8648648,0,0,2.8648648,-4.7567512,-3.756748)"
       gradientUnits="userSpaceOnUse"
       id="linearGradient3681"
       xlink:href="#linearGradient3924-2-2-5-8-0" />
    <linearGradient
       y2="43"
       x2="23.99999"
       y1="4.999989"
       x1="23.99999"
       gradientTransform="matrix(2.8648648,0,0,2.8648648,-114.75675,12.243252)"
       gradientUnits="userSpaceOnUse"
       id="linearGradient3681-6"
       xlink:href="#linearGradient3924-2-2-5-8-0" />
    <linearGradient
       id="linearGradient3242-7-3-8-0-4-58-06">
      <stop
         offset="0"
         style="stop-color:#8cd5ff;stop-opacity:1"
         id="stop3244-5-8-5-6-4-3-8" />
      <stop
         offset="0.26238"
         style="stop-color:#64baff;stop-opacity:1"
         id="stop3246-9-5-1-5-3-0-7" />
      <stop
         offset="0.66093999"
         style="stop-color:#3689e6;stop-opacity:1"
         id="stop3248-7-2-0-7-5-35-9" />
      <stop
         offset="1"
         style="stop-color:#0d52bf;stop-opacity:1"
         id="stop3250-8-2-8-5-6-40-4" />
    </linearGradient>
    <linearGradient
       y2="48.395687"
       x2="25.132275"
       y1="15.499894"
       x1="25.132275"
       gradientTransform="matrix(2.5807734,0,0,2.4746518,2.0614434,-1.133976)"
       gradientUnits="userSpaceOnUse"
       id="linearGradient4556-9"
       xlink:href="#linearGradient4658" />
    <linearGradient
       gradientUnits="userSpaceOnUse"
       y2="48.933952"
       x2="24.169817"
       y1="-12.24244"
       x1="24.169817"
       id="linearGradient4654"
       xlink:href="#linearGradient3242-7-3-8-0-4-58-06"
       gradientTransform="matrix(2,0,0,2,0,1)" />
    <linearGradient
       y2="19.963179"
       x2="23.954144"
       y1="15.999304"
       x1="23.954144"
       gradientTransform="matrix(2.8,0,0,1,-3.1999972,21.000002)"
       gradientUnits="userSpaceOnUse"
       id="linearGradient4656"
       xlink:href="#linearGradient23419" />
    <linearGradient
       x1="302.85715"
       y1="366.64789"
       x2="302.85715"
       y2="609.50507"
       id="linearGradient3128"
       xlink:href="#linearGradient5048"
       gradientUnits="userSpaceOnUse"
       gradientTransform="matrix(0.09153846,0,0,0.02058823,-1.084616,49.45142)" />
    <linearGradient
       id="linearGradient5048">
      <stop
         id="stop5050"
         style="stop-color:#000000;stop-opacity:0"
         offset="0" />
      <stop
         id="stop5056"
         style="stop-color:#000000;stop-opacity:1"
         offset="0.5" />
      <stop
         id="stop5052"
         style="stop-color:#000000;stop-opacity:0"
         offset="1" />
    </linearGradient>
    <radialGradient
       cx="605.71429"
       cy="486.64789"
       r="117.14286"
       fx="605.71429"
       fy="486.64789"
       id="radialGradient3060"
       xlink:href="#linearGradient23419"
       gradientUnits="userSpaceOnUse"
       gradientTransform="matrix(-0.03132632,0,0,0.02058823,28.779136,49.45142)" />
    <radialGradient
       cx="605.71429"
       cy="486.64789"
       r="117.14286"
       fx="605.71429"
       fy="486.64789"
       id="radialGradient3057"
       xlink:href="#linearGradient23419"
       gradientUnits="userSpaceOnUse"
       gradientTransform="matrix(0.03132633,0,0,0.02058823,35.220859,49.45142)" />
    <linearGradient
       id="linearGradient3600-9">
      <stop
         id="stop3602-3"
         style="stop-color:#f4f4f4;stop-opacity:1"
         offset="0" />
      <stop
         id="stop3604-7"
         style="stop-color:#dbdbdb;stop-opacity:1"
         offset="1" />
    </linearGradient>
    <linearGradient
       x1="25.132275"
       y1="0.98520643"
       x2="25.132275"
       y2="47.013336"
       id="linearGradient3054"
       xlink:href="#linearGradient3600-9"
       gradientUnits="userSpaceOnUse"
       gradientTransform="matrix(1.3142827,0,0,1.2602393,0.4572141,-2.1793201)" />
    <linearGradient
       id="linearGradient3977-4">
      <stop
         id="stop3979-7"
         style="stop-color:#ffffff;stop-opacity:1"
         offset="0" />
      <stop
         id="stop3981-6"
         style="stop-color:#ffffff;stop-opacity:0.23529412"
         offset="0.01214366" />
      <stop
         id="stop3983-5"
         style="stop-color:#ffffff;stop-opacity:0.15686275"
         offset="0.98781353" />
      <stop
         id="stop3985-6"
         style="stop-color:#ffffff;stop-opacity:0.39215687"
         offset="1" />
    </linearGradient>
    <linearGradient
       x1="23.99999"
       y1="5.8641062"
       x2="23.99999"
       y2="42.100208"
       id="linearGradient3051"
       xlink:href="#linearGradient3977-4"
       gradientUnits="userSpaceOnUse"
       gradientTransform="matrix(1.2162162,0,0,1.5405376,2.8108184,-6.9729501)" />
    <linearGradient
       id="linearGradient3104-6">
      <stop
         id="stop3106-3"
         style="stop-color:#000000;stop-opacity:0.31782946"
         offset="0" />
      <stop
         id="stop3108-9"
         style="stop-color:#000000;stop-opacity:0.24031007"
         offset="1" />
    </linearGradient>
    <linearGradient
       x1="-51.786404"
       y1="50.786446"
       x2="-51.786404"
       y2="2.9062471"
       id="linearGradient3048"
       xlink:href="#linearGradient3104-6"
       gradientUnits="userSpaceOnUse"
       gradientTransform="matrix(1.0843523,0,0,1.1997367,79.550862,-4.1628601)" />
    <radialGradient
       gradientTransform="matrix(2.003784,0,0,1.4,27.98813,-17.4)"
       gradientUnits="userSpaceOnUse"
       xlink:href="#linearGradient3688-166-749-4-0-3-8-1"
       id="radialGradient4093"
       fy="43.5"
       fx="4.9929786"
       r="2.5"
       cy="43.5"
       cx="4.9929786" />
    <radialGradient
       gradientTransform="matrix(2.003784,0,0,1.4,-20.01187,-104.4)"
       gradientUnits="userSpaceOnUse"
       xlink:href="#linearGradient3688-166-749-4-0-3-8-1"
       id="radialGradient4095"
       fy="43.5"
       fx="4.9929786"
       r="2.5"
       cy="43.5"
       cx="4.9929786" />
    <linearGradient
       gradientUnits="userSpaceOnUse"
       xlink:href="#linearGradient3702-501-757-8-4-1-1-4"
       id="linearGradient4097"
       y2="39.999443"
       x2="25.058096"
       y1="47.027729"
       x1="25.058096" />
    <linearGradient
       id="linearGradient3242-7-3-8-0-4-58-06-3">
      <stop
         offset="0"
         style="stop-color:#cdf87e;stop-opacity:1"
         id="stop3244-5-8-5-6-4-3-8-6" />
      <stop
         offset="0.26238"
         style="stop-color:#a2e34f;stop-opacity:1"
         id="stop3246-9-5-1-5-3-0-7-7" />
      <stop
         offset="0.66093999"
         style="stop-color:#68b723;stop-opacity:1"
         id="stop3248-7-2-0-7-5-35-9-5" />
      <stop
         offset="1"
         style="stop-color:#1d7e0d;stop-opacity:1"
         id="stop3250-8-2-8-5-6-40-4-3" />
    </linearGradient>
    <linearGradient
       gradientTransform="matrix(2.7297298,0,0,2.7297298,-2.5135187,0.4877882)"
       gradientUnits="userSpaceOnUse"
       xlink:href="#linearGradient3924-2-2-5-8-0"
       id="linearGradient3202"
       y2="43"
       x2="23.99999"
       y1="4.999989"
       x1="23.99999" />
    <radialGradient
       gradientTransform="matrix(1.5563924,0,0,0.16978827,69.270354,101.13157)"
       gradientUnits="userSpaceOnUse"
       xlink:href="#linearGradient23419"
       id="radialGradient3213"
       fy="93.467628"
       fx="-4.0287771"
       r="35.338131"
       cy="93.467628"
       cx="-4.0287771" />
    <linearGradient
       gradientTransform="matrix(1.8727272,0,0,1.9230769,3.0727266,5.8456231)"
       gradientUnits="userSpaceOnUse"
       xlink:href="#linearGradient3242-7-3-8-0-4-58-06"
       id="linearGradient3278"
       y2="48.933952"
       x2="24.169817"
       y1="-12.24244"
       x1="24.169817" />
    <linearGradient
       gradientTransform="matrix(2.6000001,0,0,0.75,0.600002,27.999471)"
       gradientUnits="userSpaceOnUse"
       xlink:href="#linearGradient23419"
       id="linearGradient3285"
       y2="19.963179"
       x2="23.954144"
       y1="15.999304"
       x1="23.954144" />
    <linearGradient
       gradientTransform="matrix(2.3698469,0,0,2.2723986,6.1236811,5.2706189)"
       gradientUnits="userSpaceOnUse"
       xlink:href="#linearGradient4658"
       id="linearGradient3288-4"
       y2="48.395687"
       x2="25.132275"
       y1="15.499894"
       x1="25.132275" />
    <linearGradient
       gradientTransform="matrix(2.7297298,0,0,2.7297298,5.7431759,1.6898958)"
       gradientUnits="userSpaceOnUse"
       xlink:href="#linearGradient3924-2-2-5-8-0"
       id="linearGradient4108"
       y2="43"
       x2="23.99999"
       y1="4.999989"
       x1="23.99999" />
    <linearGradient
       gradientTransform="matrix(2.7297298,0,0,2.7297298,-2.5135182,0.4877902)"
       gradientUnits="userSpaceOnUse"
       xlink:href="#linearGradient3924-2-2-5-8-0"
       id="linearGradient4148"
       y2="43"
       x2="23.99999"
       y1="4.999989"
       x1="23.99999" />
    <radialGradient
       r="62.769119"
       fy="185.29727"
       fx="99.189415"
       cy="185.29727"
       cx="99.189415"
       gradientTransform="matrix(0.3823536,7.5555777e-8,-1.8372241e-8,0.1115198,-5.9254271,36.335849)"
       gradientUnits="userSpaceOnUse"
       id="radialGradient3300-9-0"
       xlink:href="#linearGradient23419" />
    <radialGradient
       r="62.769119"
       fy="185.29727"
       fx="99.189415"
       cy="185.29727"
       cx="99.189415"
       gradientTransform="matrix(0.2549024,5.3967361e-8,-1.2248161e-8,0.07965545,6.7163816,44.240666)"
       gradientUnits="userSpaceOnUse"
       id="radialGradient4192-6"
       xlink:href="#linearGradient23419" />
    <radialGradient
       cx="4.9929786"
       cy="43.5"
       r="2.5"
       fx="4.9929786"
       fy="43.5"
       id="radialGradient3337-2-2-8-1"
       xlink:href="#linearGradient3688-166-749-4-0-3-8-1"
       gradientUnits="userSpaceOnUse"
       gradientTransform="matrix(2.003784,0,0,1.4,27.98813,-17.4)" />
    <radialGradient
       cx="4.9929786"
       cy="43.5"
       r="2.5"
       fx="4.9929786"
       fy="43.5"
       id="radialGradient3339-1-4-96-9"
       xlink:href="#linearGradient3688-166-749-4-0-3-8-1"
       gradientUnits="userSpaceOnUse"
       gradientTransform="matrix(2.003784,0,0,1.4,-20.01187,-104.4)" />
    <linearGradient
       xlink:href="#linearGradient3924-2-2-5-8-0"
       id="linearGradient3681-2"
       gradientUnits="userSpaceOnUse"
       gradientTransform="matrix(1.4324324,0,0,1.4324324,-2.3783756,-1.8783739)"
       x1="23.99999"
       y1="4.999989"
       x2="23.99999"
       y2="43" />
    <linearGradient
       xlink:href="#linearGradient3924-2-2-5-8-0"
       id="linearGradient3681-6-2"
       gradientUnits="userSpaceOnUse"
       gradientTransform="matrix(1.4324324,0,0,1.4324324,-2.3783756,-1.8783738)"
       x1="23.99999"
       y1="4.999989"
       x2="23.99999"
       y2="43" />
    <linearGradient
       xlink:href="#linearGradient4658"
       id="linearGradient4556-9-1"
       gradientUnits="userSpaceOnUse"
       gradientTransform="matrix(1.2903867,0,0,1.2373259,1.0307217,-0.56698844)"
       x1="25.132275"
       y1="15.499894"
       x2="25.132275"
       y2="48.395687" />
    <linearGradient
       gradientTransform="translate(0,0.49999976)"
       xlink:href="#linearGradient3242-7-3-8-0-4-58-06"
       id="linearGradient4654-2"
       x1="24.169817"
       y1="-12.24244"
       x2="24.169817"
       y2="48.933952"
       gradientUnits="userSpaceOnUse" />
    <linearGradient
       xlink:href="#linearGradient23419"
       id="linearGradient4656-9"
       gradientUnits="userSpaceOnUse"
       gradientTransform="matrix(1.4,0,0,0.5,-1.5999986,10.500001)"
       x1="23.954144"
       y1="15.999304"
       x2="23.954144"
       y2="19.963179" />
    <radialGradient
       gradientTransform="matrix(-0.03132632,0,0,0.02058823,28.779136,49.45142)"
       gradientUnits="userSpaceOnUse"
       xlink:href="#linearGradient23419"
       id="radialGradient3060-4"
       fy="486.64789"
       fx="605.71429"
       r="117.14286"
       cy="486.64789"
       cx="605.71429" />
    <radialGradient
       gradientTransform="matrix(0.03132633,0,0,0.02058823,35.220859,49.45142)"
       gradientUnits="userSpaceOnUse"
       xlink:href="#linearGradient23419"
       id="radialGradient3057-7"
       fy="486.64789"
       fx="605.71429"
       r="117.14286"
       cy="486.64789"
       cx="605.71429" />
    <linearGradient
       xlink:href="#linearGradient4806-2-9"
       id="linearGradient8460"
       gradientUnits="userSpaceOnUse"
       gradientTransform="matrix(1.1838482,0,0,1.1838482,-61.44558,-8.99018)"
       x1="71.204407"
       y1="15.369057"
       x2="71.204407"
       y2="40.495617" />
    <linearGradient
       xlink:href="#linearGradient4806-2-9"
       id="linearGradient8456"
       gradientUnits="userSpaceOnUse"
       gradientTransform="matrix(1.3471377,0,0,-1.3471377,-73.23118,61.54055)"
       x1="71.204407"
       y1="15.369057"
       x2="71.204407"
       y2="40.495617" />
    <linearGradient
       xlink:href="#linearGradient4251"
       id="linearGradient8452"
       gradientUnits="userSpaceOnUse"
       gradientTransform="matrix(0.38749999,0,0,0.38749999,-154.19999,-83.67496)"
       x1="304"
       y1="98"
       x2="368"
       y2="210" />
    <linearGradient
       xlink:href="#linearGradient4806-2-9"
       id="linearGradient8448"
       gradientUnits="userSpaceOnUse"
       gradientTransform="matrix(1.5920718,0,0,1.5920718,-90.90958,-20.3661)"
       x1="71.204407"
       y1="15.369057"
       x2="71.204407"
       y2="40.495617" />
    <linearGradient
       xlink:href="#linearGradient4140"
       id="linearGradient8444"
       gradientUnits="userSpaceOnUse"
       gradientTransform="matrix(0.69491525,0,0,0.69491525,-131.31359,-101.08475)"
       x1="196"
       y1="152"
       x2="252"
       y2="208" />
    <radialGradient
       gradientTransform="matrix(0.25490241,0,0,0.08762273,-1.27539,25.1859)"
       gradientUnits="userSpaceOnUse"
       xlink:href="#linearGradient23419"
       id="radialGradient3018"
       fy="186.17059"
       fx="99.157013"
       r="62.769119"
       cy="186.17059"
       cx="99.157013" />
    <radialGradient
       gradientTransform="matrix(2.003784,0,0,1.4,27.98813,-17.4)"
       gradientUnits="userSpaceOnUse"
       xlink:href="#linearGradient3688-166-749-4-0-3-8-1"
       id="radialGradient3013"
       fy="43.5"
       fx="4.9929786"
       r="2.5"
       cy="43.5"
       cx="4.9929786" />
    <radialGradient
       gradientTransform="matrix(2.003784,0,0,1.4,-20.01187,-104.4)"
       gradientUnits="userSpaceOnUse"
       xlink:href="#linearGradient3688-166-749-4-0-3-8-1"
       id="radialGradient3015"
       fy="43.5"
       fx="4.9929786"
       r="2.5"
       cy="43.5"
       cx="4.9929786" />
    <linearGradient
       gradientTransform="translate(4e-6,0.75000619)"
       gradientUnits="userSpaceOnUse"
       xlink:href="#linearGradient3924-2-2-5-8-0"
       id="linearGradient3991"
       y2="43"
       x2="23.99999"
       y1="4.999989"
       x1="23.99999" />
    <linearGradient
       gradientTransform="matrix(0.70909089,0,0,0.70909089,1.309104,2.0590923)"
       gradientUnits="userSpaceOnUse"
       xlink:href="#linearGradient3242-7-3-8-0-4-58-06"
       id="linearGradient4036"
       y2="48.933952"
       x2="24.169817"
       y1="-12.24244"
       x1="24.169817" />
    <linearGradient
       gradientTransform="matrix(0.99999997,0,0,0.37500001,1.801756e-6,8.7500009)"
       gradientUnits="userSpaceOnUse"
       xlink:href="#linearGradient23419"
       id="linearGradient4043"
       y2="19.963179"
       x2="23.954144"
       y1="15.999304"
       x1="23.954144" />
    <linearGradient
       gradientTransform="matrix(0.89153988,0,0,0.8548797,2.6030444,1.4165388)"
       gradientUnits="userSpaceOnUse"
       xlink:href="#linearGradient4658"
       id="linearGradient4046-7"
       y2="48.395687"
       x2="25.132275"
       y1="15.499894"
       x1="25.132275" />
    <linearGradient
       gradientTransform="translate(4e-6,0.75000599)"
       gradientUnits="userSpaceOnUse"
       xlink:href="#linearGradient3924-2-2-5-8-0"
       id="linearGradient4100"
       y2="43"
       x2="23.99999"
       y1="4.999989"
       x1="23.99999" />
    <linearGradient
       y2="40.495617"
       x2="71.204407"
       y1="15.369057"
       x1="71.204407"
       gradientTransform="matrix(0.5306906,0,0,0.53069056,-26.30317,-2.78869)"
       gradientUnits="userSpaceOnUse"
       id="linearGradient7487"
       xlink:href="#linearGradient4806-2-9" />
    <linearGradient
       y2="210"
       x2="368"
       y1="98"
       x1="304"
       gradientTransform="matrix(0.18750001,0,0,0.18750001,-74.99999,-40.875)"
       gradientUnits="userSpaceOnUse"
       id="linearGradient7483"
       xlink:href="#linearGradient4251" />
    <linearGradient
       y2="40.495617"
       x2="71.204407"
       y1="15.369057"
       x1="71.204407"
       gradientTransform="matrix(0.77562477,0,0,0.77562473,-43.98156,-9.61425)"
       gradientUnits="userSpaceOnUse"
       id="linearGradient7475"
       xlink:href="#linearGradient4806-2-9" />
    <linearGradient
       y2="202"
       x2="384"
       y1="106"
       x1="288"
       gradientTransform="matrix(0.2,0,0,0.2,-55.19999,-18.80001)"
       gradientUnits="userSpaceOnUse"
       id="linearGradient6964"
       xlink:href="#linearGradient4140" />
    <radialGradient
       xlink:href="#linearGradient23419"
       id="radialGradient3090-9-3"
       gradientUnits="userSpaceOnUse"
       gradientTransform="matrix(1.1294118,0,0,0.2823525,-58.7294,19.69412)"
       cx="62.625"
       cy="4.625"
       fx="62.625"
       fy="4.625"
       r="10.625" />
    <radialGradient
       cx="4.9929786"
       cy="43.5"
       r="2.5"
       fx="4.9929786"
       fy="43.5"
       id="radialGradient3082-6"
       xlink:href="#linearGradient3688-166-749-4-0-3-8-1"
       gradientUnits="userSpaceOnUse"
       gradientTransform="matrix(2.003784,0,0,1.4,27.98813,-17.4)" />
    <radialGradient
       cx="4.9929786"
       cy="43.5"
       r="2.5"
       fx="4.9929786"
       fy="43.5"
       id="radialGradient3084-4"
       xlink:href="#linearGradient3688-166-749-4-0-3-8-1"
       gradientUnits="userSpaceOnUse"
       gradientTransform="matrix(2.003784,0,0,1.4,-20.01187,-104.4)" />
    <linearGradient
       x1="23.99999"
       y1="4.999989"
       x2="23.99999"
       y2="43"
       id="linearGradient3192"
       xlink:href="#linearGradient3924-2-2-5-8-0"
       gradientUnits="userSpaceOnUse"
       gradientTransform="matrix(0.45945947,0,0,0.45945947,0.9742189,0.9717503)" />
    <linearGradient
       x1="24.169817"
       y1="-12.24244"
       x2="24.169817"
       y2="48.933952"
       id="linearGradient3261"
       xlink:href="#linearGradient3242-7-3-8-0-4-58-06"
       gradientUnits="userSpaceOnUse"
       gradientTransform="matrix(0.34545454,0,0,0.34545454,0.945454,0.945482)" />
    <linearGradient
       x1="23.954144"
       y1="15.999304"
       x2="23.954144"
       y2="19.963179"
       id="linearGradient3265"
       xlink:href="#linearGradient23419"
       gradientUnits="userSpaceOnUse"
       gradientTransform="matrix(0.49999998,0,0,0.25,1.0885132e-6,4.0000009)" />
    <linearGradient
       x1="25.132275"
       y1="15.499894"
       x2="25.132275"
       y2="48.395687"
       id="linearGradient3268-1"
       xlink:href="#linearGradient4658"
       gradientUnits="userSpaceOnUse"
       gradientTransform="matrix(0.42230832,0,0,0.40494298,1.8646017,1.1780783)" />
    <linearGradient
       x1="23.99999"
       y1="4.999989"
       x2="23.99999"
       y2="43"
       id="linearGradient4125"
       xlink:href="#linearGradient3924-2-2-5-8-0"
       gradientUnits="userSpaceOnUse"
       gradientTransform="matrix(0.45945947,0,0,0.45945947,0.9742189,0.9717507)" />
    <linearGradient
       gradientTransform="matrix(1.0181566,0,0,-1.0195328,-0.21530444,32.481143)"
       gradientUnits="userSpaceOnUse"
       xlink:href="#linearGradient23419"
       id="linearGradient3223"
       y2="20.187275"
       x2="12.913282"
       y1="17.533852"
       x1="12.913282" />
    <linearGradient
       gradientTransform="matrix(2.3390655,0,0,2.3420385,9.8687579,11.713606)"
       gradientUnits="userSpaceOnUse"
       xlink:href="#linearGradient4095"
       id="linearGradient3233"
       y2="41.229313"
       x2="23.99999"
       y1="6.5493407"
       x1="23.99999" />
    <linearGradient
       id="linearGradient4095">
      <stop
         offset="0"
         style="stop-color:#ffffff;stop-opacity:1"
         id="stop4097" />
      <stop
         offset="0.01652508"
         style="stop-color:#ffffff;stop-opacity:0.23529412"
         id="stop4100" />
      <stop
         offset="0.98001981"
         style="stop-color:#ffffff;stop-opacity:0.15686275"
         id="stop4102" />
      <stop
         offset="1"
         style="stop-color:#ffffff;stop-opacity:0.39215687"
         id="stop4104" />
    </linearGradient>
    <radialGradient
       gradientTransform="matrix(0,4.6270127,-5.6804933,0,68.966159,-38.745063)"
       gradientUnits="userSpaceOnUse"
       xlink:href="#linearGradient2867-449-88-871-390-598-476-591-434-148-57-177-8-3-3-6-4-8-8-8-5"
       id="radialGradient3215"
       fy="9.9571075"
       fx="6.2001843"
       r="12.671875"
       cy="9.9571075"
       cx="6.7304144" />
    <linearGradient
       id="linearGradient2867-449-88-871-390-598-476-591-434-148-57-177-8-3-3-6-4-8-8-8-5">
      <stop
         offset="0"
         style="stop-color:#919caf;stop-opacity:1"
         id="stop3750-1-0-7-6-6-1-3-9-3" />
      <stop
         offset="0.26238"
         style="stop-color:#68758e;stop-opacity:1"
         id="stop3752-3-7-4-0-32-8-923-0-7" />
      <stop
         offset="0.704952"
         style="stop-color:#485a6c;stop-opacity:1"
         id="stop3754-1-8-5-2-7-6-7-1-9" />
      <stop
         offset="1"
         style="stop-color:#444c5c;stop-opacity:1"
         id="stop3756-1-6-2-6-6-1-96-6-0" />
    </linearGradient>
    <radialGradient
       gradientTransform="matrix(2.003784,0,0,1.4,27.98813,-17.4)"
       gradientUnits="userSpaceOnUse"
       xlink:href="#linearGradient3688-166-749-4-0-3-8-1"
       id="radialGradient3082-6-3"
       fy="43.5"
       fx="4.9929786"
       r="2.5"
       cy="43.5"
       cx="4.9929786" />
    <radialGradient
       gradientTransform="matrix(2.003784,0,0,1.4,-20.01187,-104.4)"
       gradientUnits="userSpaceOnUse"
       xlink:href="#linearGradient3688-166-749-4-0-3-8-1"
       id="radialGradient3084-4-5"
       fy="43.5"
       fx="4.9929786"
       r="2.5"
       cy="43.5"
       cx="4.9929786" />
    <linearGradient
       x1="76.523361"
       y1="-9.023138"
       x2="76.523361"
       y2="3.4508991"
       id="linearGradient3149"
       xlink:href="#linearGradient23419"
       gradientUnits="userSpaceOnUse"
       gradientTransform="matrix(0.89553576,0,0,-0.89663265,7.68362,69.70686)" />
    <linearGradient
       x1="23.99999"
       y1="4.999989"
       x2="23.99999"
       y2="43"
       id="linearGradient3159"
       xlink:href="#linearGradient3924-2-2-5-8-0"
       gradientUnits="userSpaceOnUse"
       gradientTransform="matrix(2.7297298,0,0,2.7297298,-0.5135132,1.4875374)" />
    <radialGradient
       cx="6.7304144"
       cy="9.9571075"
       r="12.671875"
       fx="6.2001843"
       fy="9.9571075"
       id="radialGradient3395"
       xlink:href="#linearGradient3600-9"
       gradientUnits="userSpaceOnUse"
       gradientTransform="matrix(0,12.587719,-15.536205,0,188.30469,-104.4073)" />
    <radialGradient
       cx="4.9929786"
       cy="43.5"
       r="2.5"
       fx="4.9929786"
       fy="43.5"
       id="radialGradient2455-1"
       xlink:href="#linearGradient3688-166-749-4-0-3-8-1"
       gradientUnits="userSpaceOnUse"
       gradientTransform="matrix(2.003784,0,0,1.4,27.98813,-17.4)" />
    <radialGradient
       cx="4.9929786"
       cy="43.5"
       r="2.5"
       fx="4.9929786"
       fy="43.5"
       id="radialGradient2457-5"
       xlink:href="#linearGradient3688-166-749-4-0-3-8-1"
       gradientUnits="userSpaceOnUse"
       gradientTransform="matrix(2.003784,0,0,1.4,-20.01187,-104.4)" />
    <radialGradient
       cx="-4.0287771"
       cy="93.467628"
       r="35.338131"
       fx="-4.0287771"
       fy="93.467628"
       id="radialGradient4377"
       xlink:href="#linearGradient23419"
       gradientUnits="userSpaceOnUse"
       gradientTransform="matrix(0.7781962,0,0,0.08489414,35.635179,51.065655)" />
    <radialGradient
       cx="6.7304144"
       cy="9.9571075"
       r="12.671875"
       fx="6.2001843"
       fy="9.9571075"
       id="radialGradient3395-3"
       xlink:href="#linearGradient3600-9"
       gradientUnits="userSpaceOnUse"
       gradientTransform="matrix(0,25.083279,-30.794253,0,373.81658,-208.09078)" />
    <radialGradient
       cx="6.7304144"
       cy="9.9571075"
       r="12.671875"
       fx="6.2001843"
       fy="9.9571075"
       id="radialGradient3395-35"
       xlink:href="#linearGradient3600-9"
       gradientUnits="userSpaceOnUse"
       gradientTransform="matrix(0,25.083279,-6.0635855,0,84.44864,-208.09078)" />
    <linearGradient
       inkscape:collect="always"
       xlink:href="#linearGradient1107"
       id="linearGradient1109"
       x1="12.844522"
       y1="67.001022"
       x2="39.01009"
       y2="67.001022"
       gradientUnits="userSpaceOnUse"
       gradientTransform="matrix(0.38218163,0,0,0.5,2.5910599,-66.00051)" />
    <linearGradient
       inkscape:collect="always"
       xlink:href="#linearGradient4806-2-9"
       id="linearGradient1145"
       x1="12.998976"
       y1="62.001019"
       x2="32.998978"
       y2="62.001019"
       gradientUnits="userSpaceOnUse"
       gradientTransform="matrix(0.43082845,0,0,0.49008492,2.4553512,-65.342226)" />
    <radialGradient
       inkscape:collect="always"
       xlink:href="#linearGradient2867-449-88-871-390-598-476-591-434-148-57-177-8-3-3-6-4-8-8-8-5"
       id="radialGradient1824"
       cx="65.99044"
       cy="18.994976"
       fx="65.99044"
       fy="18.994976"
       r="3.5"
       gradientUnits="userSpaceOnUse"
       gradientTransform="matrix(-4.1719546e-7,0.71428575,-0.7142857,-2.8571431e-7,46.785741,-36.42857)" />
    <filter
       inkscape:collect="always"
       style="color-interpolation-filters:sRGB"
       id="filter2330"
       x="-0.15082753"
       width="1.3016551"
       y="-0.15082753"
       height="1.3016551">
      <feGaussianBlur
         inkscape:collect="always"
         stdDeviation="0.3770688"
         id="feGaussianBlur2332" />
    </filter>
  </defs>
  <metadata
     id="metadata7">
    <rdf:RDF>
      <cc:Work
         rdf:about="">
        <dc:format>image/svg+xml</dc:format>
        <dc:type
           rdf:resource="http://purl.org/dc/dcmitype/StillImage" />
        <dc:title />
      </cc:Work>
    </rdf:RDF>
  </metadata>
  <path
     inkscape:connector-curvature="0"
     d="m 60,59.00051 a 27.5,3 0 0 1 -54.9999995,0 27.5,3 0 1 1 54.9999995,0 z"
     id="path3041"
     style="color:#000000;display:inline;overflow:visible;visibility:visible;opacity:0.2;fill:url(#radialGradient4377);fill-opacity:1;fill-rule:nonzero;stroke:none;stroke-width:0.999997;marker:none;enable-background:accumulate" />
  <g
     transform="matrix(1.3499995,0,0,0.27777804,0.09999865,47.444952)"
     id="g2036"
     style="display:inline;stroke-width:1.99999">
    <g
       transform="matrix(1.052632,0,0,1.285713,-1.263158,-13.42854)"
       id="g3712"
       style="opacity:0.4;stroke-width:1.99999">
      <rect
         width="5"
         height="7"
         x="38"
         y="40"
         id="rect2801"
         style="fill:url(#radialGradient2455-1);fill-opacity:1;stroke:none;stroke-width:1.99999" />
      <rect
         width="5"
         height="7"
         x="-10"
         y="-47"
         transform="scale(-1)"
         id="rect3696"
         style="fill:url(#radialGradient2457-5);fill-opacity:1;stroke:none;stroke-width:1.99999" />
      <rect
         width="28"
         height="7.0000005"
         x="10"
         y="40"
         id="rect3700"
         style="fill:url(#linearGradient5515);fill-opacity:1;stroke:none;stroke-width:1.99999" />
    </g>
  </g>
  <rect
     width="51.965187"
     height="51.689213"
     rx="2.2215383"
     ry="2.2006583"
     x="6.5190878"
     y="7.7993422"
     id="rect5505-21-3"
     style="color:#000000;display:inline;overflow:visible;visibility:visible;fill:url(#radialGradient3395);fill-opacity:1;fill-rule:nonzero;stroke:none;stroke-width:0.999999;marker:none;enable-background:accumulate" />
  <path
     d="m 45.308807,22.463155 h 0.806123 v -0.940478 h 3.022963 v 0.940478 h 0.806123 v -0.940478 h 2.608709 V 20.772535 H 49.944016 V 20 h -0.806123 v 0.772535 H 46.11493 V 20 h -0.806123 v 0.772535 h -2.519132 v 0.750142 h 2.519132 z m -1.992914,0.425454 c 0.626984,0.347081 1.466696,0.850908 1.869757,1.186793 l 0.515025,-0.626985 c -0.43665,-0.324688 -1.276362,-0.806124 -1.903345,-1.119616 z m 1.645835,2.664686 c -0.425457,-0.347081 -1.265169,-0.806124 -1.925741,-1.074832 l -0.470238,0.571005 c 0.660572,0.302296 1.477893,0.794927 1.892152,1.153204 z m -1.567461,4.624013 c 0.682963,-0.817319 1.489087,-1.914543 2.11607,-2.843824 L 45.00651,26.740088 c -0.705358,1.007653 -1.612243,2.127269 -2.216835,2.799039 z m 4.355305,-6.594537 h 3.067743 c -0.391865,0.481435 -0.918081,0.929281 -1.522673,1.321147 -0.638181,-0.391866 -1.186794,-0.806124 -1.612247,-1.242774 z m 3.146118,3.974636 v 1.522678 h -3.515591 v -1.522678 z m 0.582205,-4.668798 -0.134355,0.04479 h -3.090141 c 0.167943,-0.235119 0.31349,-0.447846 0.459041,-0.671769 l -0.817321,-0.156747 c -0.481432,0.828516 -1.36593,1.869759 -2.530329,2.65349 0.190333,0.111962 0.447843,0.335885 0.593395,0.503827 0.447848,-0.335885 0.8733,-0.705358 1.231576,-1.074831 0.414259,0.391865 0.884498,0.772535 1.410716,1.130812 -0.996457,0.548612 -2.138465,0.96287 -3.179708,1.197989 0.156745,0.14555 0.335885,0.470239 0.41426,0.67177 0.246312,-0.06718 0.503827,-0.145551 0.75014,-0.223924 v 3.258082 h 0.79493 v -0.481435 h 3.515591 v 0.481435 h 0.81732 v -3.325259 h -4.915113 c 0.85091,-0.279903 1.701815,-0.671769 2.496745,-1.142008 0.996458,0.5822 2.082483,1.063635 3.112528,1.354735 0.12316,-0.212727 0.347085,-0.515023 0.52622,-0.682966 C 51.97052,26.18028 50.92928,25.788414 50,25.306979 c 0.817315,-0.5822 1.53387,-1.287558 2.00411,-2.082485 z"
     id="path960-3"
     inkscape:connector-curvature="0"
     style="font-style:normal;font-weight:normal;font-size:26.6667px;line-height:1.25;font-family:sans-serif;letter-spacing:0px;word-spacing:0px;fill:#ffffff;fill-opacity:0.777447;stroke:none;stroke-width:0.999997" />
  <path
     d="m 45.308807,21.963155 h 0.806123 v -0.940478 h 3.022963 v 0.940478 h 0.806123 v -0.940478 h 2.608709 V 20.272535 H 49.944016 V 19.5 h -0.806123 v 0.772535 H 46.11493 V 19.5 h -0.806123 v 0.772535 h -2.519132 v 0.750142 h 2.519132 z m -1.992914,0.425454 c 0.626984,0.347081 1.466696,0.850908 1.869757,1.186793 l 0.515025,-0.626985 c -0.43665,-0.324688 -1.276362,-0.806124 -1.903345,-1.119616 z m 1.645835,2.664686 c -0.425457,-0.347081 -1.265169,-0.806124 -1.925741,-1.074832 l -0.470238,0.571005 c 0.660572,0.302296 1.477893,0.794927 1.892152,1.153204 z m -1.567461,4.624013 c 0.682963,-0.817319 1.489087,-1.914543 2.11607,-2.843824 L 45.00651,26.240088 c -0.705358,1.007653 -1.612243,2.127269 -2.216835,2.799039 z m 4.355305,-6.594537 h 3.067743 c -0.39186,0.481435 -0.918081,0.929281 -1.522673,1.321147 -0.638181,-0.391866 -1.186794,-0.806124 -1.612247,-1.242774 z m 3.146118,3.974636 v 1.522678 h -3.515591 v -1.522678 z m 0.582205,-4.668798 -0.134355,0.04479 h -3.090141 c 0.167943,-0.235119 0.31349,-0.447846 0.459041,-0.671769 l -0.817321,-0.156747 c -0.481432,0.828516 -1.36593,1.869759 -2.530329,2.65349 0.190333,0.111962 0.447843,0.335885 0.593395,0.503827 0.447848,-0.335885 0.8733,-0.705358 1.231576,-1.074831 0.414259,0.391865 0.884498,0.772535 1.410716,1.130812 -0.996457,0.548612 -2.138465,0.96287 -3.179708,1.197989 0.156745,0.14555 0.335885,0.470239 0.41426,0.67177 0.246312,-0.06718 0.503827,-0.145551 0.75014,-0.223924 v 3.258082 h 0.79493 v -0.481435 h 3.515591 v 0.481435 h 0.81732 v -3.325259 h -4.915113 c 0.85091,-0.279903 1.701815,-0.671769 2.496745,-1.142008 0.996458,0.5822 2.082488,1.063635 3.112533,1.354735 C 52.53033,26.396839 52.754255,26.094543 52.93339,25.9266 51.970525,25.68028 50.92928,25.288414 50,24.806979 c 0.817315,-0.5822 1.53387,-1.287558 2.00411,-2.082485 z"
     id="path960"
     inkscape:connector-curvature="0"
     style="font-style:normal;font-weight:normal;font-size:26.6667px;line-height:1.25;font-family:sans-serif;letter-spacing:0px;word-spacing:0px;fill:#808080;fill-opacity:1;stroke:none;stroke-width:0.999997" />
  <path
     d="m 50.337305,39.187336 v 0.682966 h -5.508508 v -0.682966 z m -5.508508,1.936935 v -0.716554 h 5.508508 v 0.716554 z m -0.806124,0.951673 h 0.806124 v -0.369473 h 5.508508 v 0.347081 h 0.828515 v -3.43722 h -7.143147 z m 3.885066,-7.669368 h 2.384781 v 0.660573 h -2.384781 z m 0,-1.253969 h 2.384781 v 0.626985 h -2.384781 z m 0,4.321717 V 36.81375 h 3.817891 v -0.571004 h -3.817891 v -0.615789 h 3.202101 v -1.220381 h 1.36593 v -0.626985 h -1.36593 v -1.186793 h -3.202101 v -0.783731 h -0.817321 v 0.783731 h -3.302864 v 0.559808 h 3.302864 v 0.626985 h -4.478461 v 0.626985 h 4.478461 v 0.660573 h -3.426025 v 0.559808 h 3.426025 v 0.615789 h -3.739515 v 0.571004 h 3.739515 v 0.660573 h -4.500856 v 0.615789 h 9.897408 v -0.615789 z"
     id="path962-6"
     inkscape:connector-curvature="0"
     style="font-style:normal;font-weight:normal;font-size:26.6667px;line-height:1.25;font-family:sans-serif;letter-spacing:0px;word-spacing:0px;fill:#ffffff;fill-opacity:0.777447;stroke:none;stroke-width:0.999997" />
  <path
     d="m 50.337305,38.687336 v 0.682966 h -5.508508 v -0.682966 z m -5.508508,1.936935 v -0.716554 h 5.508508 v 0.716554 z m -0.806124,0.951673 h 0.806124 v -0.369473 h 5.508508 v 0.347081 h 0.828515 v -3.43722 h -7.143147 z m 3.885066,-7.669368 h 2.384781 v 0.660573 h -2.384781 z m 0,-1.253969 h 2.384781 v 0.626985 h -2.384781 z m 0,4.321717 V 36.31375 h 3.817891 v -0.571004 h -3.817891 v -0.615789 h 3.202101 v -1.220381 h 1.36593 v -0.626985 h -1.36593 v -1.186793 h -3.202101 v -0.783731 h -0.817321 v 0.783731 h -3.302864 v 0.559808 h 3.302864 v 0.626985 h -4.478461 v 0.626985 h 4.478461 v 0.660573 h -3.426025 v 0.559808 h 3.426025 v 0.615789 h -3.739515 v 0.571004 h 3.739515 v 0.660573 h -4.500856 v 0.615789 h 9.897408 v -0.615789 z"
     id="path962"
     inkscape:connector-curvature="0"
     style="font-style:normal;font-weight:normal;font-size:26.6667px;line-height:1.25;font-family:sans-serif;letter-spacing:0px;word-spacing:0px;fill:#808080;fill-opacity:1;stroke:none;stroke-width:0.999997" />
  <path
     d="m 47.814441,44.891875 c 0.02238,0.08957 0.04478,0.190335 0.07837,0.279904 -1.074831,0.05598 -2.351193,0.02239 -3.694732,-0.134354 l 0.05598,0.81732 c 1.399519,0.123157 2.765453,0.14555 3.851477,0.07837 0.08957,0.268708 0.190338,0.559808 0.302297,0.8733 0.06718,0.190335 0.145551,0.380669 0.223926,0.5822 -1.265169,0.111962 -2.966984,0.123158 -4.646408,-0.05598 l 0.04478,0.839712 c 1.724206,0.123157 3.560378,0.100765 4.926308,-0.02239 0.246317,0.54861 0.537416,1.097223 0.873301,1.612248 -0.358276,-0.04479 -1.086029,-0.12316 -1.679424,-0.190337 l -0.07838,0.682969 c 0.772535,0.08957 1.824976,0.19033 2.451961,0.358275 l 0.459045,-0.682964 c -0.15675,-0.156749 -0.291105,-0.302297 -0.41426,-0.481437 -0.2911,-0.425452 -0.54861,-0.906889 -0.783732,-1.388324 0.783732,-0.111961 1.489087,-0.257511 2.026507,-0.403062 l -0.134355,-0.839713 c -0.52622,0.167943 -1.30995,0.369474 -2.23923,0.481435 -0.08957,-0.223923 -0.17914,-0.459042 -0.257514,-0.671769 -0.07837,-0.235119 -0.167943,-0.492631 -0.246313,-0.772535 0.772534,-0.100765 1.567462,-0.268708 2.205642,-0.447847 l -0.123155,-0.806123 c -0.716555,0.23512 -1.50029,0.403062 -2.295215,0.503827 -0.123157,-0.447846 -0.223922,-0.906888 -0.268708,-1.332343 l -0.951675,0.123158 c 0.111963,0.313493 0.223926,0.660574 0.313494,0.996458 z m -2.205642,4.847937 -0.873301,-0.179139 c -0.246316,0.492632 -0.447847,0.962872 -0.43665,1.601052 0.01121,1.43311 1.242774,2.082485 3.437218,2.082485 0.951675,0 1.836173,-0.06718 2.619899,-0.190335 l 0.0336,-0.89569 c -0.806121,0.16794 -1.623438,0.23512 -2.664681,0.23512 -1.757798,0 -2.586312,-0.459045 -2.586312,-1.388325 0,-0.49263 0.201531,-0.873305 0.470238,-1.265167 z"
     id="path964-0"
     inkscape:connector-curvature="0"
     style="font-style:normal;font-weight:normal;font-size:26.6667px;line-height:1.25;font-family:sans-serif;letter-spacing:0px;word-spacing:0px;fill:#ffffff;fill-opacity:0.777447;stroke:none;stroke-width:0.999997" />
  <path
     d="m 47.814441,44.391875 c 0.02238,0.08957 0.04478,0.190335 0.07837,0.279904 -1.074831,0.05598 -2.351193,0.02239 -3.694732,-0.134354 l 0.05598,0.81732 c 1.399519,0.123157 2.765453,0.14555 3.851477,0.07837 0.08957,0.268708 0.190338,0.559808 0.302297,0.8733 0.06718,0.190335 0.145551,0.380669 0.223926,0.5822 -1.265169,0.111962 -2.966984,0.123158 -4.646408,-0.05598 l 0.04478,0.839712 c 1.724206,0.123157 3.560378,0.100765 4.926308,-0.02239 0.246317,0.54861 0.537416,1.097223 0.873301,1.612248 -0.358276,-0.04479 -1.086029,-0.12316 -1.679424,-0.190337 l -0.07838,0.682967 c 0.772535,0.08957 1.824976,0.190331 2.451961,0.358277 l 0.459045,-0.682964 c -0.15675,-0.156749 -0.291105,-0.302297 -0.41426,-0.481437 -0.2911,-0.425452 -0.54861,-0.906889 -0.783732,-1.388324 0.783732,-0.111961 1.489092,-0.257511 2.026507,-0.403062 l -0.134355,-0.839713 c -0.52622,0.167943 -1.30995,0.369474 -2.23923,0.481435 -0.08957,-0.223923 -0.17914,-0.459042 -0.257514,-0.671769 -0.07837,-0.235119 -0.167943,-0.492631 -0.246313,-0.772535 0.772534,-0.100765 1.567462,-0.268708 2.205642,-0.447847 l -0.123155,-0.806123 c -0.716555,0.23512 -1.50029,0.403062 -2.295215,0.503827 -0.123157,-0.447846 -0.223922,-0.906888 -0.268708,-1.332343 l -0.951675,0.123158 c 0.111963,0.313493 0.223926,0.660574 0.313494,0.996458 z m -2.205642,4.847937 -0.873301,-0.179139 c -0.246316,0.492633 -0.447847,0.962872 -0.43665,1.601052 0.01121,1.43311 1.242774,2.082485 3.437218,2.082485 0.951675,0 1.836173,-0.06718 2.619899,-0.190335 l 0.0336,-0.89569 c -0.806121,0.16794 -1.623438,0.23512 -2.664681,0.23512 -1.757798,0 -2.586312,-0.459045 -2.586312,-1.388325 0,-0.49263 0.201531,-0.873303 0.470238,-1.265167 z"
     id="path964"
     inkscape:connector-curvature="0"
     style="font-style:normal;font-weight:normal;font-size:26.6667px;line-height:1.25;font-family:sans-serif;letter-spacing:0px;word-spacing:0px;fill:#808080;fill-opacity:1;stroke:none;stroke-width:0.999997" />
  <rect
     width="52.000004"
     height="52.000004"
     rx="2.5000038"
     ry="2.5000014"
     x="6.4999986"
     y="7.4999986"
     id="rect5505-21-3-5"
     style="color:#000000;display:inline;overflow:visible;visibility:visible;opacity:0.42225318;fill:none;fill-opacity:1;fill-rule:nonzero;stroke:#000000;stroke-width:0.999997;stroke-opacity:1;marker:none;enable-background:accumulate" />
  <rect
     width="7.7511625"
     height="51.5"
     rx="1.5016747"
     ry="1.25"
     x="7.7505116"
     y="-58.25"
     id="rect5505-21-3-9"
     style="color:#000000;display:inline;overflow:visible;visibility:visible;fill:url(#linearGradient1109);fill-opacity:1;fill-rule:nonzero;stroke:#a66700;stroke-width:0.999997;stroke-opacity:0.379525;marker:none;enable-background:accumulate"
     transform="rotate(90)" />
  <rect
     width="5.8153601"
     height="49.529694"
     rx="0.55362862"
     ry="1.1486176"
     x="8.702364"
     y="-57.255825"
     id="rect5505-21-3-9-9"
     style="color:#000000;display:inline;overflow:visible;visibility:visible;fill:none;fill-opacity:1;fill-rule:nonzero;stroke:url(#linearGradient1145);stroke-width:1;stroke-opacity:0.379525;marker:none;enable-background:accumulate"
     transform="rotate(90)" />
  <circle
     style="opacity:0.548821;fill:#000000;fill-opacity:1;stroke:none;stroke-width:1.99999;stroke-linecap:square;stroke-linejoin:round;stroke-opacity:0.379525;filter:url(#filter2330)"
     id="path1816-7"
     cx="67.904968"
     cy="22.904964"
     r="3"
     transform="scale(0.5)" />
  <circle
     style="opacity:1;fill:url(#radialGradient1824);fill-opacity:1;stroke:#a66700;stroke-width:0.999997;stroke-linecap:square;stroke-linejoin:round;stroke-opacity:0.379525"
     id="path1816"
     cx="33.75"
     cy="11.25"
     r="1.5" />
</svg>
